<mxfile host="app.diagrams.net" agent="Mozilla/5.0 (Windows NT 10.0; Win64; x64) AppleWebKit/537.36 (KHTML, like Gecko) Chrome/129.0.0.0 Safari/537.36 Edg/129.0.0.0" version="24.7.17">
  <diagram name="第 1 页" id="jpa2wOINJIz7jYTB9zWg">
    <mxGraphModel dx="1367" dy="863" grid="1" gridSize="10" guides="1" tooltips="1" connect="1" arrows="1" fold="1" page="1" pageScale="1" pageWidth="827" pageHeight="1169" math="0" shadow="0">
      <root>
        <mxCell id="0" />
        <mxCell id="1" parent="0" />
        <mxCell id="51-t077lw56yoV1oO3za-1" value="文本" style="shape=image;verticalLabelPosition=bottom;labelBackgroundColor=default;verticalAlign=top;aspect=fixed;imageAspect=0;image=data:image/png,iVBORw0KGgoAAAANSUhEUgAAAgAAAAIACAYAAAD0eNT6AAAAAXNSR0IArs4c6QAAIABJREFUeAHtnQuMJfdV5j9PsIcZ8wisJybhITbOGJF9kASMAcd2nLByEnBAhiAgEVIIChsBMWCMw0MQY54BbI+RbUBkl4cQghACCVlAQsKL8doOjkUgBJZHAjL2Ol4CmEcgEzPQx9OtnrnT3be7+v/Vra/+v5JG07dv33NP/b5T53xVt26VxOIi8AmSXiDp1ZKOSXqbpHsk/b6kP5f0N5I+KOnf+AcDaoAa6LQGqgdWL6yeWL2xemT1yuqZ1TufL6l6KQsEJkvgSZI+Q9I3S/p1SX/f6caMmcHQUQPUgKMGqqf+mqTr1ntt9VwWCKyMwLmSXi7pzZL+loHPHhw1QA1QA6PVQB01qN77MkmHVzYFeOOuCByQ9FxJP8Ze/mgbumNvgpjspVID86mBD0j6BUlXSeLIQFcjeZyVLYd5jaS/wOEz+KkBaoAamGwNvHftnILXSDo0zmjgXeZM4CPWB//DbPCT3eDZk5vPnhxaomWrGnh0bTC9TtKT5zygWDcPgQ+X9O3rZ6e2Kkji0NyoAWqAGhi3Bt4v6VslHfSMCqLOjcAVkt7NHj97/NQANUANzKYG/lTSC+c2rFifdgSeJumn2eBns8GzpzXunha84Z1QA2+V9EntxgaR5kCgvkrCd/dpYAkNjBypU2pgfzXwmKQvm8PgYh32R6A+668rTrFBwYAaoAaogb5qoI74cg2B/c3Q2Fd/iqR3MvwxP9QANUANdFsDfyjpP8VOMRIfRODFkv6Rjb7bjZ49vb729NAbvXeqgfr498pBk4QXxRGoy/ceZ/gz/KkBaoAaoAbWa+BDkr4ybpqR8J4I1BWi/pWNno2eGqAGqAFqYKEGTqzfbGhPQ4U/ziDwfQti73RIiOc4ZEgNUAPUQJ818D0ZI40sd0vg2xj+uH1qgBqgBqiBXdbAa3c7XPi7aRP4Ckl1aAc3DwNqgBqgBqiB3dRAzYxXTnu0kd0yAi+RVCd37EZw/gZO1AA1QA1QAxs18Likq5cNGZ6fJoHPkvTPDH/MDzVADVAD1MDAGviApIumOeLIajsCHyPpPQMF33B//M+eADVADVAD1MBfSvrY7YYNv58WgbMk/crEhv8HJdUVp960dlvK+jbCN0t6laQvX/v9S/kHA2qAGui0BqoHVi+snli98ZfW78ZaPXNK5qt6d80WlokT+IYJFE6dQPJ/1grmBknP417UE68Y0oMABKZGoO7TUrdm/661q/TdM5ETues6MiwTJvDpklbpHOtjh+9cu63w0yfMiNQgAAEIpBG4YC3h10l67wp38Gq2PCsNXC/5HpB074qK4w/Wzjmorxt+WC+wWU8IQAACKyBQff6qtX/vWFGvf/vaUYnKgWViBF69goJ4aP2+0nw2NLFiIB0IQGDWBGoIv0zS/1tB369zFlgmROApkv5mxEKo+wncIumjJsSAVCAAAQj0RuCj187Qv3Xke7z8taTzegM95fX9yRGH/yOSPnfKMMgNAhCAQGcE6na+j444B97QGd/Jru5/HvEM0d+W9NTJkiAxCEAAAv0S+HhJd49kAuoo8Kf2i3o6a/6zIwn+y5IOTWe1yQQCEIAABBYIHJT0xpFmwk8tvDcPRybwDEl1vWb3BSN+QtKTRl433g4CEIAABPZOoHr1/xhhLtR9ZvjK9971afaKGszu4f9zfO2jmV4EggAEIDAGgfqWwM+PMB9+dIyV4T3OJFCf97gv+vMbks458635DQQgAAEITJxAfRzwm2YT8C+cF7aaKvgWs7B/Jqm+YsICAQhAAAKZBJ48wo3hrstEk511XX3Pdfj/uKS6nTALBCAAAQhkE6jb+TqPFr8rG09e9iWoa/hX3G/MQ0LGEIAABCCwDYG626BzZjx7m/fl1wYCP2IU8/e5pr9BMUJCAAIQWB2Buk/L7xnnxk2rW7W+3rnO7nRd8aku7vDZfeFkbSEAAQh0QeBS40Xj6p4E3BNmhDJ6jtHF1ddGWCAAAQhAYJ4E3mScH582T2TTWqs649LxWc4JSWUuWCAAAQhAYJ4EnmU8CvAN80Q2rbV6m8kAvHVaq0k2EIAABCBgIMAMMUAdI2SdyPGYyQC8eIwV4D0gAAEIQGClBK4yzZC/5wRyr64Xm4SrEzjKXLBAAAIQgMC8CZwt6X2mWVJfUWcxEXilSbQfNuVLWAhAAAIQmB6BY6ZZ8orprep8MvpBk2jPnw8i1gQCEIAABJYQuNI0S75/yfvy9D4IvMUgWt3M4dA+cuKlEIAABCCQReCwpOr9rb9R9uYsDFnZ/l+DYL+VhYBsIQABCECgAYH/bZgnf9QgL0JsQaBO3PiQQTA+/98CNr+CAAQgMHMCNxvmSd1IjhPKDYXzcQax6vDPqwy5EhICEIAABKZN4NWmmXJk2qudmd1Rk1iXZeIgawhAAAIQ2AeBK0wz5en7yImXbkOgbrfY+oSNinfBNu/HryEAAQhAYL4EXDuVdblhlsYEak/dYQCe0jhPwkEAAhCAwPQJuD5Wfu70Vz0vw88zGYD6OggLBCAAAQj0ReBc00x5UV8Yx1nbLzaJxT2cx9GPd4EABCAwJQLV+x1HlWtWsTQm8FKTWI3TJBwEIAABCIQQcBiAmlUsjQlgABoDJRwEIACBzglgAEIKAAMQIhRpQgACEAghgAEIEQoDECIUaUIAAhAIIYABCBEKAxAiFGlCAAIQCCGAAQgRCgMQIhRpQgACEAghgAEIEQoDECIUaUIAAhAIIYABCBEKAxAiFGlCAAIQCCGAAQgRCgMQIhRpQgACEAghgAEIEQoDECIUaUIAAhAIIYABCBEKAxAiFGlCAAIQCCGAAQgRCgMQIhRpQgACEAghgAEIEQoDECIUaUIAAhAIIYABCBEKAxAiFGlCAAIQCCGAAQgRCgMQIhRpQgACEAghgAEIEQoDECIUaUIAAhAIIYABCBEKAxAiFGlCAAIQCCGAAQgRCgMQIhRpQgACEAghgAEIEQoDECIUaUIAAhAIIYABCBEKAxAiFGlCAAIQCCGAAQgRCgMQIhRpQgACEAghgAEIEQoDECIUaUIAAhAIIYABCBEKAxAiFGlCAAIQCCGAAQgRCgMQIhRpQgACEAghgAEIEQoDECIUaUIAAhAIIYABCBEKAxAiFGlCAAIQCCGAAQgRCgMQIhRpQgACEAghgAEIEQoDECIUaUIAAhAIIYABCBEKAxAiFGlCAAIQCCGAAQgRCgMQIhRpQgACEAghgAEIEQoDECIUaUIAAhAIIYABCBEKAxAiFGlCAAIQCCGAAQgRCgMQIhRpQgACEAghgAEIEQoDECIUaUIAAhAIIYABCBEKAxAiFGlCAAIQCCGAAQgRCgMQIhRpQgACEAghgAEIEQoDECIUaUIAAhAIIYABCBEKAxAiFGlCAAIQCCGAAQgRCgMQIhRpQgACEAghgAEIEQoDECIUaUIAAhAIIYABCBEKAxAiFGlCAAIQCCGAAQgRCgMQIhRpQgACEAghgAEIEQoDECIUaUIAAhAIIYABCBEKAxAiFGlCAAIQCCGAAQgRCgMQIhRpQgACEAghgAEIEQoDECIUaUIAAhAIIYABCBEKAxAiFGlCAAIQCCGAAQgRCgMQIhRpQgACEAghgAEIEQoDECIUaUIAAhAIIYABCBEKAxAiFGlCAAIQCCGAAQgRCgMQIhRpQgACEAghgAEIEQoDECIUaUIAAhAIIYABCBEKAxAiFGlCAAIQCCGAAQgRCgMQIhRpQgACEAghgAEIEQoDECIUaUIAAhAIIYABCBEKAxAiFGlCAAIQCCGAAQgRCgMQIhRpQgACEAghgAEIEQoDECIUaUIAAhAIIYABCBEKAxAiFGlCAAIQCCGAAQgRCgMQIhRpQgACEAghgAEIEQoDECIUaUIAAhAIIYABCBEKAxAiFGlCAAIQCCGAAQgRCgMQIhRpQgACEAghgAEIEQoDECIUaUIAAhAIIYABCBEKAxAiFGlCAAIQCCGAAQgRCgMQIhRpQgACEAghgAEIEQoDECIUaUIAAhAIIYABCBEKAxAiFGlCAAIQCCGAAQgRCgMQIhRpQgACEAghgAEIEQoDECIUaUIAAhAIIYABCBEKAxAiFGlCAAIQCCGAAQgRCgMQIhRpQgACEAghgAEIEQoDECIUaUIAAhAIIYABCBEKAxAiFGlCAAIQCCGAAQgRCgMQIhRpQgACEAghgAEIEQoDECIUaUIAAhAIIYABCBEKAxAiFGlCAAIQCCGAAQgRCgMQIhRpQgACEAghgAEIEQoDECIUaUIAAhAIIYABCBEKAxAiFGlCAAIQCCGAAQgRCgMQIhRpQgACEAghgAEIEQoDECIUaUIAAhAIIYABCBEKAxAiFGlCAAIQCCGAAQgRCgMQIhRpQgACEAghgAEIEQoDECIUaUIAAhAIIYABCBEKAxAiFGlCAAIQCCGAAQgRCgMQIhRpQgACEAghgAEIEQoDECIUaUIAAhAIIYABCBEKAxAiFGlCAAIQCCGAAQgRCgMQIhRpQgACEAghgAEIEQoDECIUaUIAAhAIIYABCBEKAxAiFGlCAAIQCCGAAQgRCgMQIhRpQgACEAghgAEIEQoDECIUaUIAAhAIIYABCBEKAxAiFGlCAAIQCCGAAQgRCgMQIhRpQgACEAghgAEIEQoDECIUaUIAAhAIIYABCBEKAxAiFGlCAAIQCCGAAQgRCgMQIhRpQgACEAghgAEIEQoDECIUaUIAAhAIIYABCBEKAxAiFGlCAAIQCCGAAQgRCgMQIhRpQgACEAghgAEIEQoDECIUaUIAAhAIIYABCBEKAxAiFGlCAAIQCCGAAQgRCgMQIhRpQgACEAghgAEIEQoDECIUaUIAAhAIIYABCBEKAxAiFGlCAAIQCCGAAQgRCgMQIhRpQgACEAghgAEIEQoDECIUaUIAAhAIIYABCBEKAxAiFGlCAAIQCCGAAQgRCgMQIhRpQgACEAghgAEIEQoDECIUaUIAAhAIIYABCBEKAxAiFGlCAAIQCCGAAQgRCgMQIhRpQgACEAghgAEIEQoDECIUaUIAAhAIIYABCBEKAxAiFGlCAAIQCCGAAQgRCgOws1AHJB2VdJmkYtXbvy+R9BpJ3yHp9ZK+VdJXdcihdP8CSZ8l6Sk7l8ysnu29/sfY3qu3VI85a0aVgwEIEbMK3CFWyOpvm+aFku6Q9LCJj4M5MT21vMj1hKT7JV0n6dxtKyj7Cep/nFo6tbYeWjOXt6+bgezq8bCrWcXSmAAG4HSgByXdurane5zBbzGGpza8OfxcBnFOjYn69wyvvdR69Z6bJZ1zemuKerSX9d3t385pO5uMmBiATSmOSLqbwc/g32MN1BGBGzfLKPYn6n/1w//UYXiXpPNCq+nU9Wj1MwbAUAwYgJNQz5Z05x4bf6vCJs60Gu9QPeojgdSF+p9mDdYOSR2VSVuGbkM7vQ4DYKgCDMBJqMcY/uz577MGHpd0qWEbHSMk9T9NA1ADsT4OSFt2GuRDn8MAGKoAAyDVCU985j/dBji0YazidW8PPJub+p927Vdvqm8JJC2ObQ8DYKgADMDJs/0dBUvMaTdWlz5XGLZTZ8j6touLBXHbsL3NWQCG2A7dMQAGoXo3APU9Z77q16ZJOTb6xJi3GLZTV0jqP6P26yuCSdcJcGy3GABDF+jdANShNUexErNfrg8YtlNXSOo/p04vcBWBIa6j/2EADEL1bgDqcK2jWInZL9f3GbZTV0jqP6dOL3cVgSGuo/9hAAxC9W4AvggDgAFqXAN1XYCU5arG6+5o/MQ8aVJKq5TFoRkGwKB+7wbAtf6ODYCYOXtrhk3VEvJiDECMAb7IUgGeoI5ehQEwaOUagIZULSFd6+/YAIiJAWi9EZy/dqOnOmJBbU2bQWlUV2pMWRz1hAEwqO8agIZULSFd6+/YAIg57SZ9qj6WYjUFrRsbnZo7P0+Px30m7V1hHTWEATCo5RqAhlQtIV3r79gAiDm9xrydJpZiNQWtSxhvtx78fhpsrjVp7wrrqBsMgEEt1wA0pGoJ6Vp/xwZAzGk0493oYClWU9BDkh7EBEzWBNU1AA6btHeF3c02ste/wQAY1HINQEOqlpCu9d9rcfP3OcN9N1pZitUYtLYDzgWYXg2WJlcbdXeF3s02ste/wQAY1HINQEOqlpCu9d9rcfP302u++9HEUqzmoHVL4/2sM69tz+8Gs+au8I5awAAY1HINQEOqlpCu9XdsAMRs32BdTC3FOkLQayTVXQ1dXIi7O7alwfUj6O16C4fOGACDWq4BaEjVEtK1/o4NgJi7a55T4GQp1pGC1i2N78UErMwE3SPpkpG0dr2NYxvEABjUcg1AQ6qWkK71d2wAxMQAWDaCLYLWjWfqMsHHJNW9DR7BENgMQbEtxnUTqbrcb9JNf7YonSd+5ehVGIDtaO/j964BuI+URn0p6+8ZqqOKuI83613/faDjpRDYlgAGYFs003qi9wbI+mMAHM1qWls52UBgXAKObap6NUtjAgxABqBjY21cprZwvde/DSyBuybg6CkYAENJ9d4AWX8MkKNZGTZVQkIghoBjm8IAGORnADIAHRuroVQtIXuvfwtUgnZPwNFTMACGsuq9AbL+GCBHszJsqoSEQAwBxzaFATDIzwBkADo2VkOpWkL2Xv8WqATtnoCjp2AADGXVewNk/TFAjmZl2FQJCYEYAo5tCgNgkJ8ByAB0bKyGUrWE7L3+LVAJ2j0BR0/BABjKqvcGyPpjgBzNyrCpEhICMQQc2xQGwCB/7wPwiwyXOK1beKYs6N/eACXpn1Kn5JlFAAMQolfvA6Cuvd26WOva3ikL+vetf0qdkmcWgdY9teJVr2JpTKD3AXDUYADe0VgjZzj0b28AkvR31hax+yWAAQjRvvcBUHfeerCxCbgpRPtKE/371j+oVEk1iAAGIESs3gdAyXR7YwPwvBDtK03071v/oFIl1SACGIAQsRgA0tMlfbCRCbgv7H7e6N+3/iFtijTDCGAAQgRjAJwU6uYGBuBxSZ8TovtGmujft/4bdcD/EGhJAAPQkqYxFgPgJNyzJd25TxPwjUadXKHRv2/9XXVF3L4JYABC9GcAbAp1nqS7BpiA+t73DZthon5C/025etR/c+35CQLtCGAA2rG0RmIAnI73HEn1ccDxXRqBv5J09ekhoh6h/+ly9ab/6WvPIwi0IYABaMPRHoUBsDXiZ0i6TVIN+MVirj3+t0u6VtLhrV8e81v031qqXvTfeu35LQT2R2CxZ7Z4XL2KpTEBBsDOQOs6ATUMLpP0EkkXrxmDIzu/JOpZ9N9Zrrnrv/Pa8ywEhhFoMfAXY2AAhmmx46sYADvimf2T6D97iVlBCIxOYHF4t3iMATDIyAAwQA0Kif5BYpEqBEIItBj4izEwAAbxGQAGqEEh0T9ILFKFQAiBxeHd4jEGwCA+A8AANSgk+geJRaoQCCHQYuAvxsAAGMRnABigBoVE/yCxSBUCIQQWh3eLxxgAg/gMAAPUoJDoHyQWqUIghECLgb8YAwNgEJ8BYIAaFBL9g8QiVQiEEFgc3i0eYwAM4jMADFCDQqJ/kFikCoEQAi0G/mIMDIBBfAaAAWpQSPQPEotUIRBCYHF4t3iMATCIzwAwQA0Kif5BYpEqBEIItBj4izEwAAbxGQAGqEEh0T9ILFKFQAiBxeHd4jEGwCA+A8AANSgk+geJRaoQCCHQYuAvxsAAGMRnABigBoVE/yCxSBUCIQQWh3eLxxgAg/gMAAPUoJDoHyQWqUIghECLgb8YAwNgEJ8BYIAaFBL9g8QiVQiEEFgc3i0eYwAM4jMADFCDQqJ/kFikCoEQAi0G/mIMDIBBfAaAAWpQSPQPEotUIRBCYHF4t3iMATCIzwAwQA0Kif5BYpEqBEIItBj4izEwAAbxGQAGqEEh0T9ILFKFQAiBxeHd4jEGwCA+A8AANSgk+geJRaoQCCHQYuAvxsAAGMRnABigBoVE/yCxVpDqAUlHJV0mqWqFf+0ZFNtifNYK9HW95eLwbvG4ao+lMQEGQGOgYeHQP0ywkdK9UNIdkh6W1KJ5E2M5x4ck3b5uBkaS2fY2Dr0xAAa5GAAGqEEh0T9IrBFSPSjpVknHGfwrMz7F/mZJ54ygt+stMAAuso3jMgAaAw0Lh/5hghnTPSLpbgb/ygb/4tC8S9J5Rr2doRfXpcXj6lUsjQkwABoDDQuH/mGCmdI9W9KdDP/JDP+NgVmGrI7KpC0b+bf8HwNgqAIGgAFqUEj0DxLLmOoxhv/khv/G8KyPA9KWjdxb/o8BMFQBA8AANSgk+geJZUq1TvjjM//lJ+m1HGZ7iVXa1LcEkpa9rN9u/xYDYKgABoABalBI9A8Sy5Rqne2/2ybM362G1W0m7V1hHXWCATCoxQAwQA0Kif5BYhlSre/581W/1Qz1vQzJ+opg0nUC9rJuu/1bDIChATAADFCDQqJ/kFiGVOvQ8m4bMH+3WlYXGPR3hXTUCgbAoBYDwAA1KCT6B4llSPUKDECMAbrcoL8rJAbARbZxXAZAY6Bh4dA/TLDG6V6FAYgxAKVVyoIBCFGKARAilClN9DeBDQl7MQYgxgBcFFJTlSYGIEQsBkCIUKY00d8ENiTs+ZJOmBq2Ywj0GrM0qis1piwOnapXsTQmwABoDDQsHPqHCWZI934MgGWPteUQvM+guzNky3XfiIUBMCjGADBADQqJ/kFimVK9DgMweQNwrUl7V9iNod3yfwyAQS0GgAFqUEj0DxLLlOohSQ9iAiZrAuoaAIdN2rvCthz8G7EwAAa1GAAGqEEh0T9ILGOqVQecC+A5eW1jgA35vzS52qi7K/SQdV32GgyAQS0GgAFqUEj0DxLLnOqNHAWY3FGAG8yau8IvG+ZDnscAGNRiABigBoVE/yCxRkj1GkmPYwRWbgRKg+tH0Nv1FkMG/LLXYAAMajEADFCDQqJ/kFgjpXqppHsxASszAfdIumQkrV1vs2yYD3keA2BQiwFggBoUEv2DxBox1brxTF0m+JikByQ9giGwGYJiW4xvkVSX+0266c92JTlkwC97DQZgO9r7+D0DYB/wZvBS9J+BiKwCBCZGYNkwH/I8BsAgMgPAADUoJPoHiUWqEAghMGTAL3sNBsAgPgPAADUoJPoHiUWqEAghsGyYD3keA2AQnwFggBoUEv2DxCJVCIQQGDLgl70GA2AQnwFggBoUEv2DxCJVCIQQWDbMhzyPATCIzwAwQA0Kif5BYpEqBEIIDBnwy16DATCIzwAwQA0Kif5BYpEqBEIILBvmQ57HABjEZwAYoAaFRP8gsUgVAiEEhgz4Za/BABjEZwAYoAaFRP8gsUgVAiEElg3zIc9jAAziMwAMUINCon+QWKQKgRACQwb8stdgAAziMwAMUINCon+QWKQKgRACy4b5kOcxAAbxGQAGqEEh0T9ILFKFQAiBIQN+2WswAAbxGQAGqEEh0T9ILFKFQAiBZcN8yPMYAIP4DAAD1KCQ6B8kFqlCIITAkAG/7DUYAIP4DAAD1KCQ6B8kFqlCIITAsmE+5HkMgEF8BoABalBI9A8Si1QhEEJgyIBf9hoMgEF8BoABalBI9A8Si1QhEEJg2TAf8jwGwCA+A8AANSgk+geJRaoQCCEwZMAvew0GwCA+A8AANSgk+geJRaoQCCGwbJgPeR4DYBCfAWCAGhQS/YPEIlUIhBAYMuCXvQYDYBCfAWCAGhQS/YPEIlUIhBBYNsyHPI8BMIjPADBADQqJ/kFikSoEQggMGfDLXoMBMIjPADBADQqJ/kFikSoEQggsG+ZDnscAGMRnABigBoVE/yCxSBUCIQSGDPhlr8EAGMRnABigBoVE/yCxSBUCIQSWDfMhz2MADOIzAAxQg0Kif5BYpAqBEAJDBvyy12AADOIzAAxQg0Kif5BYpAqBEALLhvmQ5zEABvEZAAaoQSHRP0gsUoVACIEhA37ZazAABvEZAAaoQSHRP0gsUoVACIFlw3zI8xgAg/gMAAPUoJDoHyQWqUIghMCQAb/sNRgAg/gMAAPUoJDoHyQWqUIghMCyYT7keQyAQXwGgAFqUEj0DxKLVCEQQmDIgF/2GgyAQXwGgAFqUEj0DxKLVCEQQmDZMB/yPAbAID4DwAA1KCT6B4lFqhAIITBkwC97DQbAID4DwAA1KCT6B4lFqhAIIbBsmA95HgNgEJ8BYIAaFBL9g8QiVQiEEBgy4Je9BgNgEJ8BYIAaFBL9g8QiVQiEEFg2zIc8jwEwiM8AMEANCon+QWKRKgRCCAwZ8MtegwEwiM8AMEANCon+QWKRKgRCCCwb5kOexwAYxGcAGKAGhUT/ILFIFQIhBIYM+GWvwQAYxGcAGKAGhUT/ILFIFQIhBJYN8yHPYwAM4jMADFCDQqJ/kFikCoEQAkMG/LLXYAAM4jMADFBXFPJcSf9F0oskla67+XeTpGUb3pDnd/PeG39zmaSjks5aETfednsCB9a1KY029OL/tizmWP9Desay11TdsTQmUFCXgR/yfOM0CbcDgS+Q9BZJHzBpOUT/Ia95SNLt6wNnh9XlqREIXCjpDkkPh9fUkDpc1WvmVP8OhhgAw4aPATBAHSlk7TX/zgwb9HFJN0s6ZySOvM0mgYOSbpVUGjiaODGXc51D/Tt0xgBsbqfNfsIANEM5aqArJL1/5k36LknnjUq17zc7IunumdeUYzC5YibXv4MJBsDQnzAABqjmkM+U9FgnjboGUu2VsngJnC3pzk5qyjGcXDFT69/BAwNg6AEYAANUY8hDkt7TWaOujwNYvASOdVZTjgHliplY/w4WGABDD8AAGKAaQ762w0Zdn4nW+Q4sHgJ1wh+f+S//bN4x1HYTM7H+d7Nee/0bDIBh+8cAGKCaQj5J0qMdGoBqFLeZmBL25Nn+e23G/P24hiGt/h31gQEwdCsMgAGqKeTlnQ7/aib1FSmuE9C+sOp7/nzVb9xhPmQ4ptX/kHWNIX4KAAAU/klEQVRc9hoMQPvt/4mLeywDP+R5Q6rdh/y2jg1A1eAF3VdAewD10cqQ7ZvXjM8tqf4d9YEBaL/9YwAMTF0h6yI5jg0rJWYdAWFpS6C+Tpqif+95JtW/QysMQNtt/4lofARggGoK+TOdN+urTFx7DltMHc2amO25JtW/Q38MgKFTYQAMUE0hf6jzZn2RiWvPYS/uvKYcg8oVM6n+HQwwAIZOhQEwQDWF/NqOm/WJtW8C1JXqWNoSOF9SsXU0bGK245pW/w7tMQBtt/0nomEADFBNIT+540Z9n4kpYaX7O64rx6ByxEyrfwcDDIChW2EADFCNIX+302Z9rZFp76Gv67SmHEPKFTOt/h0cMACGToUBMEA1hryyw2Zd34E+bGTae+i6vPSDHdaVY0g5YibWv4MDBsDQqTAABqjmkD/fUbOuzz6vNvMkvJ74OjDnArT7zL7VAEyt/1brf2ocDIChU2EADFDNIc+V9I5OTMANZpaE3yRwYyc1depQmfrPqfXv4IoB2NxWm/2EAWiGctRAHynpLTNu2I9Lun5UorxZEbhGUrF3NHBi7p5rev07tMYAGHoUBsAAdaSQdXOgr5vhDYLukXTJSAx5mzMJXCrpXkzAykzQHOofA3DmdjXJ32AAJinLnpKqowEvl/RGSe+W9A9hzfsRSQ9IukVSXe6Um/7sSX7LH5cGdZngY+valEaOpk5MaY7179CVIwCGTR0DYIBKSAhAAAIdE8AAhIiPAQgRijQhAAEIhBDAAIQIhQEIEYo0IQABCIQQwACECIUBCBGKNCEAAQiEEMAAhAiFAQgRijQhAAEIhBDAAIQIhQEIEYo0IQABCIQQwACECIUBCBGKNCEAAQiEEMAAhAiFAQgRijQhAAEIhBDAAIQIhQEIEYo0IQABCIQQwACECIUBCBGKNCEAAQiEEMAAhAiFAQgRijQhAAEIhBDAAIQIhQEIEYo0IQABCIQQwACECIUBCBGKNCEAAQiEEMAAhAiFAQgRijQhAAEIhBDAAIQIhQEIEYo0IQABCIQQwACECIUBCBGKNCEAAQiEEMAAhAiFAQgRijQhAAEIhBDAAIQIhQEIEYo0IQABCIQQwACECIUBCBGKNCEAAQiEEMAAhAiFAQgRijQhAAEIhBDAAIQIhQEIEYo0IQABCIQQwACECIUBCBGKNCEAAQiEEMAAhAiFAQgRijQhAAEIhBDAAIQIhQEIEYo0IQABCIQQwACECIUBCBGKNCEAAQiEEMAAhAiFAQgRijQhAAEIhBDAAIQIhQEIEYo0IQABCIQQwACECIUBCBGKNCEAAQiEEMAAhAiFAQgRijQhAAEIhBDAAIQIhQEIEYo0IQABCIQQwACECIUBCBGKNCEAAQiEEMAAhAiFAQgRijQhAAEIhBDAAIQIhQEIEYo0IQABCIQQwACECIUBCBGKNCEAAQiEEMAAhAiFAQgRijQhAAEIhBDAAIQIhQEIEYo0IQABCIQQwACECIUBCBGKNCEAAQiEEMAAhAiFAQgRijQhAAEIhBDAAIQIhQEIEYo0IQABCIQQwACECIUBCBGKNCEAAQiEEMAAhAiFAQgRijQhAAEIhBDAAIQIhQEIEYo0IQABCIQQwACECIUB2FmoA5KOSrpMUrHiHwyoAWqgZQ1Ub6kec9bOrSjqWQxAiFxVyA6xQlZ/2zQvlHSHpIdNfBzMiempZbjCdYwaeEjS7etmYNvGFPKEg1fNKpbGBDAApwM9KOlWSccZ/BZj6GgMxGRAz6kGqvfcLOmc01tT1COHHhgAQwlgADahHpF0N4OfwU8NUAMTqIG7JJ232Z6ifsIAhMiFATgp1NmS7pzARu/YcIjJHjI1kFkDtUNSRyXTFke9cQTAUAUYgJNQjzH82eujBqiBCdZAfRyQtmAAQhTDAEh1wh+f+WfuITkaDTGphSnVQPWm+pZA0uLgxxEAQwVgAE6e7e8oWGIySKgBaqBFDdxm6P3OkC3WeTEGBsCgWO8GoL7nz1f9aNKLzYbH1MSUaqC+Iph0nQAHOwwABqA5gTq05ihWYsKVGqAGWtbABc27ny9gy/XeiIUBMOjV+xGAKzAAGCBqgBoIqIHLDf3fFXJjaLf8HwNgUKt3A3BVwIbfciMiFnul1EBmDVSvSlkcNYYBMKjfuwG4GAPA3h81QA0E1MBFhv7vCokBcJFtHLd3A3C+pBMBG79jgyJm5p4guvWnW/WoulJpyuKoUY4AGNTv3QAU0vsxAOwBUgPUwIRr4D5D73eGxAA46TaMjQGQrpvwhu/YkIjZ3x4kmmdrfm3Dnj9GKEe9cQTAoBwGQDok6UFMAHuA1AA1MMEaqGsAHDb0fmdIDICTbsPYGICTMIsD5wJk7yU5mg4xqYlV1kD1pKsb9vuxQjmYcQTAoB4GYBPqjRN0/44NiZgMNWogowZu2GxPUT856gsDYCgBDMDpUK+R9DhGgEPB1AA1sMIaqB50/emtKeoRBiBELgzAmUJdKuneFW78jo2HmBl7fOiETvdIuuTMthT1G0cdcwTAUAIYgK2h1o036jLBxyQ9IOkRDAF7hNQANWCogeot1WNukVSX+0266c/W3dNj4jAA29Hex+8xAPuAx0shAAEIQOAMAhwBOAPJNH+BAZimLmQFAQhAIJUABiBEOQxAiFCkCQEIQCCEAAYgRCgMQIhQpAkBCEAghAAGIEQoDECIUKQJAQhAIIQABiBEKAxAiFCkCQEIQCCEAAYgRCgMQIhQpAkBCEAghAAGIEQoDECIUKQJAQhAIIQABiBEKAxAiFCkCQEIQCCEAAYgRCgMQIhQpAkBCEAghAAGIEQoDECIUKQJAQhAIIQABiBEKAxAiFCkCQEIQCCEAAYgRCgMQIhQpAkBCEAghAAGIEQoDECIUKQJAQhAIIQABiBEKAxAiFCkCQEIQCCEAAYgRCgMQIhQpAkBCEAghAAGIEQoDECIUKQJAQhAIIQABiBEKAxAiFCkCQEIQCCEAAYgRCgMQIhQpAkBCEAghAAGIEQoDECIUKQJAQhAIIQABiBEKAxAiFCkCQEIQCCEAAYgRCgMQIhQpAkBCEAghAAGIEQoDECIUKQJAQhAIIQABiBEKAxAiFCkCQEIQCCEAAYgRCgMQIhQpAkBCEAghAAGIEQoDECIUKQJAQhAIIQABiBEKAxAiFCkCQEIQCCEAAYgRCgMQIhQpAkBCEAghAAGIEQoDECIUKQJAQhAIIQABiBEKAxAiFCkCQEIQCCEAAYgRCgMQIhQpAkBCEAghAAGIEQoDECIUKQJAQhAIIQABiBEKAxAiFCkCQEIQCCEAAYgRCgMQIhQpAkBCEAghAAGIEQoDECIUKQJAQhAIIQABiBEKAxAiFCkCQEIQCCEAAYgRCgMQIhQpAkBCEAghAAGIEQoDECIUKQJAQhAIIQABiBEKAxAiFCkCQEIQCCEAAYgRCgMQIhQpAkBCEAghAAGIEQoDECIUKQJAQhAIIQABiBEKAxAiFCkCQEIQCCEAAYgRCgMwM5CHZB0VNJlkooV/2BADVADLWugekv1mLN2bkVRz2IAQuSqQnaIFbL626Z5oaQ7JD1s4uNgTkxPLcMVrmPUwEOSbl83A9s2ppAnHLxqVrE0JoABOB3oQUm3SjrO4LcYQ0djICYDek41UL3nZknnnN6aoh459MAAGEoAA7AJ9Yikuxn8DH5qgBqYQA3cJem8zfYU9RMGIEQuDMBJoc6WdOcENnrHhkNM9pCpgcwaqB2SOiqZtjjqjSMAhirAAJyEeozhz14fNUANTLAG6uOAtAUDEKIYBkCqE/74zD9zD8nRaIhJLUypBqo31bcEkhYHP44AGCoAA3DybH9HwRKTQUINUAMtauA2Q+93hmyxzosxMAAGxXo3APU9f77qR5NebDY8piamVAP1FcGk6wQ42GEAMADNCdShNUexEhOu1AA10LIGLmje/XwBW673RiwMgEGv3o8AXIEBwABRA9RAQA1cbuj/rpAbQ7vl/xgAg1q9G4CrAjb8lhsRsdgrpQYya6B6VcriqDEMgEH93g3AxRgA9v6oAWogoAYuMvR/V0gMgIts47i9G4DzJZ0I2PgdGxQxM/cE0a0/3apH1ZVKUxZHjXIEwKB+7wagkN6PAWAPkBqgBiZcA/cZer8zJAbASbdhbAyAdN2EN3zHhkTM/vYg0Txb82sb9vwxQjnqjSMABuUwANIhSQ9iAtgDpAaogQnWQF0D4LCh9ztDYgCcdBvGxgCchFkcOBcgey/J0XSISU2ssgaqJ13dsN+PFcrBjCMABvUwAJtQb5yg+3dsSMRkqFEDGTVww2Z7ivrJUV8YAEMJYABOh3qNpMcxAhwKpgaogRXWQPWg609vTVGPMAAhcmEAzhTqUkn3rnDjd2w8xMzY40MndLpH0iVntqWo3zjqmCMAhhLAAGwNtW68UZcJPibpAUmPYAjYI6QGqAFDDVRvqR5zi6S63G/STX+27p4eE4cB2I72Pn6PAdgHPF4KAQhAAAJnEOAIwBlIpvkLDMA0dSErCEAAAqkEMAAhymEAQoQiTQhAAAIhBDAAIUJhAEKEIk0IQAACIQQwACFCYQBChCJNCEAAAiEEMAAhQmEAQoQiTQhAAAIhBDAAIUJhAEKEIk0IQAACIQQwACFCYQBChCJNCEAAAiEEMAAhQmEAQoQiTQhAAAIhBDAAIUJhAEKEIk0IQAACIQQwACFCfbHh0pYl/hwuZxkiIWlCAAIQmAyB6v0OA1CziqUxgc8ziXW4cZ6EgwAEIACB6RM41zRTXjT9Vc/L8DKTWE/JQ0HGEIAABCCwTwIfZ5opz91nXrx8CwLPNon1jC3ei19BAAIQgMC8CRw1zZRnzRvbatbOJVbd1pIFAhCAAAT6IvB8kwF4el8Yx1lb1+GaV42TPu8CAQhAAAITIvBqkwE4MqF1nE0qZ0s6bhDsptkQYkUgAAEIQGC3BG4xzJMPSvqw3SbA3+2NwB8bBLtzbynw1xCAAAQgMAMCv22YJ++eAZfJrsJbDIL9i6RDk11jEoMABCAAgdYE6uvf1ftbXwfgza0TJd4mgdcbBKsCeMHmW/ATBCAAAQjMnMCVplnyfTPnttLVe6VJNM4DWKmsvDkEIACBUQncapolrxh1LTp7s4tNoj3CiRudVRKrCwEI9EqgTih/1DRLLuoV6hjrXWdXPmYS7sVjrADvAQEIQAACKyXwEtMM+TtJT1rpmnXw5r9qEq/iskAAAhCAwLwJ/C/TDKmT1FnMBL7JJF6dDPjp5twJDwEIQAACqyNQl5Q/YZohX7+61ernnV33BCgD8Av9YGRNIQABCHRHoL6m1/qrfxvx/mt3NFewwgckvc8kYjnDS1awTrwlBCAAAQh4CdR9X1x7/w9LOsubPtE3CBwzGYBycn8gqc4SZYEABCAAgXkQqBPI32mcGz88D0wZa1Gf1W8cdnH8X+cZsEAAAhCAwDwIvNY8M7gF8Mh1UnvqjuFfMeumQ5898vrwdhCAAAQg0J7AZ0qqm/S45sW72qdMxGUE3I7uLyV97LIkeB4CEIAABCZL4GMkvdc4/MtUcMR4BfI/zezqStjflHRwBevGW0IAAhCAwP4IVO/+LfPwrxsKPXV/afLqoQR+3CxumYD62ghXdxqqEK+DAAQgMD6B+rZYfa3bddh/I+4d468a77hB4AJJHxpB5DdgAjaQ8z8EIACBSROoM/7/5whzoc4V+4+TJtFBcj8zgtDl9n5F0qEOeLKKEIAABFIJ1GH/XxxpJpTJYFkxgWdK+teRBP8dSXXuAQsEIAABCEyLwCdIumekWfC4pE+Z1ur3m00dot/4TMb9f91G8sp+UbPmEIAABCZHoO7m+v9HnAN1/hnLRAgckfT+EcWvIw4/IunJE1l/0oAABCDQI4H6mt/txkv8brVDWUbjP/QIe8rr/NUjGoCNonhE0ldIqjNOWSAAAQhAYBwC1XNfYbwvzEaP3+r/V46zirzLXghUQYz1+c9iUfyZpFdJqrNPWSAAAQhAwEOg+vxLJf3RCnb4qu+/nR0+j7Atotatgp2XfFwc/IuP/2LtjlA3SDraYmWIAQEIQAACTxC4cO2r2Deu7fXXFVoX++5Yj+uiP9zyd+IF+ZoVFsiphVhO8bslPZ+vD068YkgPAhCYGoH6yvUL1u7M+j2SfnciPf1rpgaJfM4kUPdk/qWJFMyGIagLRvzx+lUFv1/S9esfGbxs/XBWHdLiHwyoAWqgtxqoHljnb1VP/IH1Hlm9snrmRv+cwv9vPHPU8JupEqiz898zsQKaQhGTw7SaCnqgBzUw/Rqoc7w+eqrDjry2JnCRpA9gAibloml20292aIRG1MBmDfyTpOdsPWL47dQJfP5I9wpgg9ncYGABC2qAGphDDdTV/r5w6kOO/HYm8PKRLxIxh8JnHWjg1AA10HMNnJD0lTuPFp5NIfAtfBTARwHUADVADVADu6yB61KGG3nujsD37lL4nl0v685eHzVADfReA/X1bZYZEvi6Ee8c2PtGxPozSKgBaiCpBuqw/zfNcO6xSqcQ+PIJfsc0aSMhV5o6NUANzK0G6gqyX3bKnODHGRN4oaR/4CMBPg+kBqgBaqD7GnhM0n+b8bxj1bYgUNeW/j02/u43/rntybA+7J1TA7uvgXdJeuYW84FfdUDgwyUdwwRgAqgBaoAa6K4GflrS4Q7mHKu4hEB99lOHgXDOMKAGqAFqYN418HeSvmTJTODpzgg8VVI5QjZ+GFAD1AA1MM8aeKukT+xstrG6eyDwvLU78/0hRgAjRA1QA9TAbGrgTyRduYc5wJ92TOCgpLp64PtpALNpAOzRzXOPDl3Rdaca+Ov1Ww2f0/E8Y9UHEvgISddIeggjgBGgBqgBaiCmBh5d6/mv4za+AycfLzuNwKG1owF1FcH30gBiGsBOewU8x14jNTDPGniPpK+VVD2bBQJNCRyQ9Nz1rw7y8cA8GwiDAV2pgawaqG9w1QncnyvprKYdn2AQ2IZAOcy6rPCbOFeAowIcGaIGqIFRa6A+2/9FSV/K3v42E4pfj0agjgw8Z/1GEm+TVN8zZS8CBtQANUANtKmB6qnVW6+V9GxJ1XNZIDBZAk+TdIWk/752IsrNkn517XrTd0t6p6Q/Xz9qUDegoEHAgBqgBnqtgeqB9XFq9cTqjdUjq1feJOmr13toXaOFxUDg3wFIbQOnNc6SrAAAAABJRU5ErkJggg==;" vertex="1" parent="1">
          <mxGeometry x="130" y="140" width="70" height="70" as="geometry" />
        </mxCell>
        <mxCell id="51-t077lw56yoV1oO3za-2" value="语音" style="shape=image;verticalLabelPosition=bottom;labelBackgroundColor=default;verticalAlign=top;aspect=fixed;imageAspect=0;image=data:image/png,iVBORw0KGgoAAAANSUhEUgAAAgAAAAIACAYAAAD0eNT6AAAAAXNSR0IArs4c6QAAIABJREFUeAHtnfuPJddx3xXHMYLAgIMACWAEhuEfEuQPiJMACfJDkt+cBLEkS3zJCS1pSdqyRFKUKFFStDS5XHK5DB9LSiZIS5ZtktaDji2K4kMUSVGMCEjkzu4sacFODJCUI8TyI6IsvnbuzAnOrlp7b2duTXVXd5+qPp8BBvfeOXVu1fdbdb51prtv3ze8gR8YgAEYgAEYgAEYgAEYgAEYgAEYgAEYgAEYgAEYgAEYgAEYgAEYgAEYgAEYgAEYgAEYgAEYgAEYgAEYgAEYgAEYgAEYgAEYgAEYgAEYgAEYgAEYgAEYgAEYgAEYgAEYgAEYgAEYgAEYgAEYgAEYgAEYgAEYgAEYgAEYgAEYgAEYgAEYgAEYgAEYgAEYgAEYgAEYgAEYgAEYgAEYgAEYgAEYgAEYgAEYgAEYgAEYgAEYgAEYgAEYgAEYgAEYgAEYgAEYgAEYgAEYgAEYgAEYgAEYgAEYgAEYgAEYgAEYgAEYgAEYgAEYgAEYgAEYgAEYgAEYgAEYgAEYgAEYgAEYgAEYgAEYgAEYgAEYgAEYgAEYgAEYgAEYgAEYgAEYgAEYGJiBp59OP7Hx7MmfPXZicd7Gia2rNzYXnzm2uXjq6Ob25sbm4k82Nhd/tbG5eH1jc5H4hQNqoEwN3Pk7J58ceOnzdjAAA7Ux8Nxz6cePbm79u6ObW9dubG4/vbG52EbUy4g6vMO7tgauuelkuvOuradq0yvwwgAMGBnY2Eh/d2Nze9/RzcUTG5uLhVZ0sKNBUQM+aiBvAE5tAjgSYFRDpsNABQyklH5k48Ti5zY2F58+trl4FSH3IeTkgTz0qYFmA8AmoALxBiIM9GUgN/7jxxf/4ejm9jN9hIY5NChqwF8NLG8ATm0COB3QVyKZBwPzY+Cxx9KPbhxfvGNjc/G/EHB/Ak5OyImlBtobAI4EzE/DQQQDvRg4euLkP93YXHzDIjDMpUFRA35rYLcNAEcCesklk2BgHgw891z6e8eOb93Mlfx+hZumSm6GqIF1GwA2AfPQclDAQCcGNjYX/2ljc/GXQ4gL70GTogZ814C0ATi1CeDTAZ30E2MYCMlAPtd/+jP8ix1E27dokx/yM1QN7LUB4EhASDknaBjQM3D8ePqZjc3F14cSFd6HBkUNxKgBzQaAIwF6LcUSBkIx8IML/b6DYMcQbPJEnoasAe0GgCMBoWSdYGFgbwaOH9/6Nxubi+8NKSi8Fw2KGohTA102AGwC9tZULGAgBAPHTizeuLG5eA2xjiPW5IpcDV0DXTcAbAJCyDtBwsB6Bo4eX5zNR/xoJkM3E94vXk312QCc2gTw6YD1AssIDHhl4OjxrX/Lf/7xhJrmSs7GqIG+GwCOBHhVeOKCgTUMbDx78mc3Nhd/PYaQ8J40KGogXg1YNgBsAtYILX+GAW8MnPqo34nFnyPS8USanJGzsWrAugE4tQngdIA3uSceGDjDwNNPp7+1sbn42lgiwvvSoKiBmDUwxAaAIwFntJZnMOCOgY0TWzch0DEFmryRtzFrYKgNAJsAd7JPQDDwhjccO7H49xub3N53TBHlvWnSUWtgyA0AmwA6Dgw4YuDo0fT3+WIfmlPU5kTc49fu0BuAU5sArglw1AUIpVoGNjYXn0BExxdROIbjqDUwxgaAIwHVthyAe2Fg49mtf8mhfxpT1MZE3NPU7lgbADYBXjoBcVTHQP5q343N7WOI6DQiCs/wHLUGxtwAsAmorvUA2AMDG5uLd0YVJOKmmVID09XA2BuAU5sArgnw0BaIoQYGPvOZ9Dc3Tmz9MSI6nYjCNVxHrYEpNgAcCaih84DRBQMbm4tzo4oRcdNIqYFpa2CqDQCbABftgSDmzEBK6W9sbG6fQESnFVH4hu+oNTDlBoBNwJy7D9iKM7BxYvFzUYWIuGmi1MD0NTD1BuDUJoBrAor3CgKYIQMbm4vPIKLTiyicw3nUGiixAeBIwAybD5DKMvD00+knNjYXr0QVIuKmiVID09dAqQ0Am4Cy/QLvM2Pg2Ob2BQjo9AIK53AeuQZKbgDYBMysCQGnHANHNxdPRBYiYqeRUgPT10DpDcCpTQDXBJRrHHiOz8APDv8vENDpBRTO4TxyDXjYAHAkIH4PAkFBBo4eX/zHyCJE7DRRaqBMDXjZALAJKNhAcB2bgY3NrRsR0DICCu/wHrkGPG0A2ATE7kNEX4iBjc3t45FFiNhpotRAmRrwtgFgE1CoieA2JgM/OP+/g4CWEVB4h/fINeBxA3BqE8CFgTEbElFPy8CxYyf/WWQBInYaKDVQrga8bgA4EjBtH8FbUAaOnli8DQEtJ6BwD/eRa8DzBoBNQNCmRNjTMbBxYuvqyAJE7DRQaqBcDXjfALAJmK6X4CkgAxubi88ioOUEFO7hPnINRNgAsAkI2JgIeRoGNjYXX4ssQMROA6UGytVAlA3AqU0AFwZO01TwEoeBjc3tZxHQcgIK93AfuQYibQA4EhCnLxHpRAxsHF88H1mAiJ0GSg2Uq4FoGwA2ARM1FtzEYGBjc/GXCGg5AYV7uI9cAxE3AGwCYvQmopyAgY3NxeuRBYjYaaDUQLkaiLoBYBMwQXPBhX8GEM9y4gn3cB+9Bq695WRiE+Bf54kQBnZlILoAET9NlBooVwOHb4u9AeBIwK5tgT/WwgDiWU484R7uo9fAjb++FfoIQHP04s67tp6qRfPBCQM/ZCC6ABE/TZQaKFcDt9wR/wgAm4AftgOe1MYA4llOPOEe7qPXwMc+OZ8NQN4IfPKek0/W1gPAWzED0QWI+Gmi1EC5GvjE3fM4BdAcBciPnA6ouCHWBh3xLCeecA/30Wvg078/vw0Am4DaumDFeKMLEPHTRKmBcjVw/8Pz3ACwCai4KdYEHfEsJ55wD/fRa+CxJxez+BTA8imA5eecDqipG1aINboAET9NlBooVwPfODrvDUDeDHBhYIWNsRbIiGc58YR7uJ9DDRy5c16fBFg+AtA850hALR2xMpxzECAw0EipgXI1cPe9870OoNkA5Ec2AZU1xxrgIpzlhBPu4X4ONfDQo3VsANgE1NARK8M4BwECA42UGihXAzVcB8CRgMoaYy1wEc5ywgn3cD+XGvj4b87/OoDlTQAXBtbSIWeOcy4CBA6aKTVQrgY+/2A9pwGajQDXBMy8OdYAD9EsJ5pwD/dzqYF8GuDaW+o6CsA1ATV0yJljnIsAgYNmSg2UrYFPzvB7AZr/9qVHjgTMvEnOGR6iWVY04R/+51IDDz82/5sCrdsIcE3AnLvkjLHNRXzAQSOlBsrXwJE76jsN0GwKOBIw40Y5V2iIZnnRJAfkYC41MOcvB2oavfTIJmCunXKmuOYiPOCgiVIDPmrg5tvr+0TA8qaATcBMm+UcYSGaPkSTPJCHudTAfRV+JHB5A5Cfc03AHLvlDDHNRXTAQQOlBvzUwK2/Ue+1AM1mgCMBM2yYc4OEaPoRTXJBLuZSA489uUgHb2YTwCZgbh1zZnjmIjjgoHlSA75q4Lc+U/e1ABwJmFmznCMcRNOXaJIP8jGXGvj6M4t0/W0cBeCagDl2zplgmovYgIPGSQ34q4GHHq335kDNEYDmkdMBM2mac4KBaPoTTXJCTuZUA/fcy6kANgFz6pozwjInoQELjZMa8FcDR48v0sc+yakANgEzapxzgYJg+hNMckJO5lYDX/v6VjrM9QCp2QRwn4C5dNDgOOYmNOCheVIDPmvg8ScX6dCtHAloNgFcExC8ec4hfMTSp1iSF/Iyxxp45CuLdO0tbALYBMyhe84AwxxFBkw0T2rAbw188ZEtbhJ005lNEKcDZtBIo0JAKP0KJbkhN3OtgQce2eJIwNImgNMBUTto8LjnKjDgonlSA75rIJ8O4JqAM0cC2AQEb6YRw0ckfYsk+SE/c66Br/yPRTr8sTNNsDk3Xusjm4CIXTRwzHMWF7DRPKkB/zWQPyL4ce4T8MOPCLIJCNxQo4WOQPoXSHJEjuZeA/lmQZ/5Ay4ObI58sAmI1kmDxjt3YQEfzZMaiFMDDz26xRcI/eDiQD4dELSpRgobcYwjjuSKXNVQA18/ukh33cvRgHw0gCMBkbppwFhrEBQw0jipgXg1kC8QvO0TXCDIJiBgY40SMsIYTxjJGTmrqQY+/+BWuvn2ur9RkNMBUTpqsDhrEhKw0jipgZg1kC8SfPDRrXTbb9R7RIAjAcGaa4RwEcSYgkjeyFutNfDwY4v0yXvqvJMgRwIidNVAMdYqIuCmgVIDsWvgG0cX6b4Ht9Kvf+pkVd8twCYgUIP1HioiGFsEyR/5owYW6emNRXrk8UX63f++lW79jflvCDgd4L2zBokP8aCBUAPUwNxqIB8dePzJRbr/S1vp07+/lT559+m7DR6582S66fatdPi2k+G/jIgjAUGarOcw57bwwUMzowaogVpqwHNvIbYADNSyUMBJU6AGqIG51UCAFkOInhmY24IADyJPDVADtdSA595CbAEYqGWhgJOmQA1QA3OrgQAthhA9MzC3BQEeRJ4aoAZqqQHPvYXYAjBQy0IBJ02BGqAG5lYDAVoMIXpmYG4LAjyIPDVADdRSA557C7EFYKCWhQJOmgI1QA3MrQYCtBhC9MzA3BYEeBB5aoAaqKUGPPcWYgvAQC0LBZw0BWqAGphbDQRoMYTomYG5LQjwIPLUADVQSw147i3EFoCBWhYKOGkK1AA1MLcaCNBiCNEzA3NbEOBB5KkBaqCWGvDcW4gtAAO1LBRw0hSoAWpgbjUQoMUQomcG5rYgwIPIUwPUQC014Lm3EFsABmpZKOCkKVAD1MDcaiBAiyFEzwzMbUGAB5GnBqiBWmrAc28htgAM1LJQwElToAaogbnVQIAWQ4ieGZjbggAPIk8NUAO11IDn3kJsARioZaGAk6ZADVADc6uBAC2GED0zMLcFAR5EnhqgBmqpAc+9hdgCMFDLQgEnTYEaoAbmVgMBWgwhemZgbgsCPIg8NUAN1FIDnnsLsQVgoJaFAk6aAjVADcytBgK0GEL0zMDcFkTteJ742iLdde9WuuWOk+m6I6d/8/O7P7eVnniKBjD3+iD/ddW4595CbAEYmLsg1oLvmWOL9Duf3UoHbz6Zrrlp/e9dn9tK2bYWXmrBSf7rrOkALYYQPTNQi0DOGWcW/9s/tb7ptzcE2ZZNwHwaBvmfTy676pTn3kJsARjoWnDY+xOb3/7slvhff3sDkF/nIwHk0l8u++SE/M8jj31yH6DFEKJnBvoUHXP8CE4+57vXYf/dNgD5b1/lmoDwmyDy72ctltBFz72F2AIwUKJo8TmcaOUL/tY1+L3+fs+9HAWIXovkf7i1FLEWArQYQvTMQMSiJ+YzonfLHf03AEfuOBn+P+Daa4H8n1kLNdaC595CbAEYqHHRzAnzoSP6i//aRwQO3coGIHotkH82AAHaDCF6ZSC6ANYef7upd31dO3/R8XfNd9s+Ov7a4/faV4grCAO1L6Do+NuC3vV1dPy1x98132372vmLjj9ImyFMrwxEXwC1x98W9K6va+cvOv6u+W7bR8dfe/xe+wpxBWGg9gUUHX9b0Lu+jo6/9vi75rttXzt/0fEHaTOE6ZWB6Aug9vjbgt71de38RcffNd9t++j4a4/fa18hriAM1L6AouNvC3rX19Hx1x5/13y37WvnLzr+IG2GML0yEH0B1B5/W9C7vq6dv+j4u+a7bR8df+3xe+0rxBWEgdoXUHT8bUHv+jo6/trj75rvtn3t/EXHH6TNEKZXBqIvgNrjbwt619e18xcdf9d8t+2j4689fq99hbiCMFD7AoqOvy3oXV9Hx197/F3z3bavnb/o+IO0GcL0ykD0BVB7/G1B7/q6dv6i4++a77Z9dPy1x++1rxBXEAZqX0DR8bcFvevr6Phrj79rvtv2tfMXHX+QNkOYXhmIvgBqj78t6F1f185fdPxd8922j46/9vi99hXiCsJA7QsoOv62oHd9HR1/7fF3zXfbvnb+ouMP0mYI0ysD0RdA7fG3Bb3r69r5i46/a77b9tHx1x6/175CXEEYqH0BRcffFvSur6Pjrz3+rvlu29fOX3T8QdoMYXplIPoCqD3+tqB3fV07f9Hxd8132z46/trj99pXiCsIA7UvoOj424Le9XV0/LXH3zXfbfva+YuOP0ibIUyvDERfALXH3xb0rq9r5y86/q75bttHx197/F77CnEFYaD2BRQdf1vQu76Ojr/2+Lvmu21fO3/R8QdpM4TplYHoC6D2+NuC3vV17fxFx98132376Phrj99rXyGuIAzUvoCi428LetfX0fHXHn/XfLfta+cvOv4gbYYwvTIQfQHUHn9b0Lu+rp2/6Pi75rttHx1/7fF77SvEFYSB2hdQdPxtQe/6Ojr+2uPvmu+2fe38RccfpM0QplcGoi8Ab/E/+Mh2OnhoJ+27cCe99ax06jc/v/bQTnroke00dLxtQe/6euh4psY/dPzW95saf9d8t+2teNvzp8bf9l/ba699hbiCMFDbghkL7zeOLtKBgzvpjW9O6efftPtvHrvm2p309MZisI1AW9C7vh6Kj1L4h4rf+j6l8HfNd9veiruZXwp/47/WxyBthjC9MlDrwhkSdxa/Sy7bWdv42xuCSy8bbhPQFvSur4fgoST+IeK3vkdJ/F3z3ba3Ys/zS+IfIv7I7+G1rxBXEAYiF7+X2K8+qG/+zWbg4HU7gxwFaAt619dDcFgS/xDxW9+jJP6u+W7bW7Hn+SXxDxF/5PcI0mYI0ysDkYvfQ+z5nKd02L9p+O3HPOfhL9uvCWgLetfXVg5L47fGb51fGn/XfLfto+O3xh99vte+QlxBGIi+AErHny/4azd37evrrrcfBWgLetfXVv5K47fGb51fGn/XfLfto+O3xh99fpA2Q5heGYi+AErHv+/C3S/402wCLrgo/gagNH7yfzK1m3qX11b+as+/lT/rfK99hbiCMGAtwNrnv/Xs/huAs85J5usAuoj9brbW/JXGb43fOr80/t1y2uVv0fFb448+P0ibIUyvDERfAKXj1/ynL9lY4+8i9rvZWv1L2DRjVv+l52swSjbW+HfLaZe/Wf1L2DRjVv+1z/faV4grCAO1LyArfo3ISTZW/13Efjdbq38Jm2bM6r/0fA1GycYa/2457fI3q38Jm2bM6r/2+UHaDGF6ZaD2BWTFrxE5ycbqv4vY72Zr9S9h04xZ/Zeer8Eo2Vjj3y2nXf5m9S9h04xZ/dc+32tfIa4gDNS+gKz4NSIn2Vj9dxH73Wyt/iVsmjGr/9LzNRglG2v8u+W0y9+s/iVsmjGr/9rnB2kzhOmVgdoXkBW/RuQkG6v/LmK/m63Vv4RNM2b1X3q+BqNkY41/t5x2+ZvVv4RNM2b1X/t8r32FuIIwUPsCsuLXiJxkY/XfRex3s7X6l7Bpxqz+S8/XYJRsrPHvltMuf7P6l7Bpxqz+a58fpM0QplcGal9AVvwakZNsrP67iP1utlb/EjbNmNV/6fkajJKNNf7dctrlb1b/EjbNmNV/7fO99hXiCsJA7QvIil8jcpKN1X8Xsd/N1upfwqYZs/ovPV+DUbKxxr9bTrv8zepfwqYZs/qvfX6QNkOYXhmofQFZ8WtETrKx+u8i9rvZWv1L2DRjVv/t+U98bZHuuncr3XLHyXTdkdO/+fndn9tKTzw13NcwN341GCWb5n36Pu6W0y5/6+u3mSdh04w178Njv9r02leIKwgDLLx+C6/hTSNykk3zPn0fu4j9brZ9/TbzJGyaseZ9rI/PHFuk3/nsVjp4s3xr3Ls+t5WyrdVfM1+DUbJp3qfv42457fK3vn6beRI2zVjzPjz2q8kgbYYwvTLAwuu38BreNCIn2TTv0/exi9jvZtvXbzNPwqYZa97H8pgb+u2fkhv/MvZsO9QmQINRsrHgznOXcfV5bvUvYdOMWf3XPt9rXyGuIAzUvoCs+DUiJ9lY/fcR/eU5Vv8SNs2Y1X+e/9uf3ercCPORgCF8azBKNtYYlnPZ57nVv4RNM2b1X/v8IG2GML0yUPsCsuLXiJxkY/XfR/SX51j9S9g0Y1b/+Zz/Xof9l/EuP//qANcEaDBKNlb8y3j6PLf6l7Bpxqz+a5/vta8QVxAGal9AVvwakZNsrP77iP7yHKt/CZtmzOo/X/C3jKfL83vutR8F0GCUbKz4u+DdzdbqX8KmGbP6r31+kDZDmF4ZqH0BWfFrRE6ysfrfTdS7/M3qX8KmGbP6v+WO/huAI3ecNJ8G0GCUbKz4u+R6N1urfwmbZszqv/b5XvsKcQVhoPYFZMWvETnJxup/N1Hv8jerfwmbZszq/9AR/cV/bV4O3coGwMq/JseSjdV/7fODtBnC9MpA7QvIil8SN82Y1X+7qXV9bfWvwSjZWP13xdu2t/qXsGnGrP7beLq+tvrXYJRsrP5rn++1rxBXEAZqX0BW/JK4acas/rsKftve6l+DUbKx+m/j6fra6l/Cphmz+u+Kt21v9a/BKNlY/dc+P0ibIUyvDNS+gKz4JXHTjFn9twW962urfw1Gycbqvyvetr3Vv4RNM2b138bT9bXVvwajZGP1X/t8r32FuIIwUPsCsuKXxE0zZvXfVfDb9lb/GoySjdV/G0/X11b/EjbNmNV/V7xte6t/DUbJxuq/9vlB2gxhemWg9gVkxS+Jm2bM6r8t6F1fW/1rMEo2Vv9d8bbtrf4lbJoxq/82nq6vrf41GCUbq//a53vtK8QVhIHaF5AVvyRumjGr/66C37a3+tdglGys/tt4ur62+pewacas/rvibdtb/WswSjZW/7XPD9JmCNMrA7UvICt+Sdw0Y1b/bUHv+trqX4NRsrH674q3bW/1L2HTjFn9t/F0fW31r8Eo2Vj91z7fa18hriAM1L6ArPglcdOMWf13Ffy2vdW/BqNkY/XfxtP1tdW/hE0zZvXfFW/b3upfg1GysfqvfX6QNkOYXhmY2wLi++C73RjHmn9J3DVjVv/thtb1tdW/BqNkY/XfFW/b3upfwqYZs/pvz596/bf9T/3aa18hriAMTF2wY/nj++C7Nf6mEVjzoRF5ycbqv8HR99HqX8KmGbP674u7mWf1r8Eo2Vj9N/NLrf/Gf6nHIG2GML0yUKpwh/TL98H3a/65CVjzIIm7Zszqv2lkfR+t/jUYJRur/764m3lW/xI2zZjVf55fcv0PEb/lPbz2FeIKwoCl+LzM5fvg2QA0Da3ro7WGNU1OsrH674q3bW/1L2HTjFn95/kl1/8Q8VveI0ibIUyvDFiKz8Ncvg++f/PPzcCaQ43ISzZW/+2G1vW11b+ETTNm9d8Vb9ve6l+DUbKx+i+9/q3xW+d77SvEFYQBawGWns/3wbMBaDe1Lq+t9Ss1N82Y1X8XrLvZWv1rMEo2Vv+l1781fuv8IG2GML0yYC3A0vP5Png2ALs1Nu3frPUrNTfNmNW/Fuc6O6t/DUbJxuq/9Pq3xm+d77WvEFcQBqwFWHo+3wfPBmBdc9P83Vq/UnPTjFn9azBKNlb/GoySjdV/6fVvjd86P0ibIUyvDFgLsPR8Sdw0Y9b4JXHTjFn9azBKNlb/GoySjdW/hE0zZvUvYdOMWf1rMEo2Vv8ajJKN1b+ETTNm9V96vte+QlxBGChdwFb/mkUu2Vj9S+KmGbP6l7Bpxqz+NRglG6t/DUbJxupfwqYZs/qXsGnGrP41GCUbq38NRsnG6r/0/CBthjC9MlC6gK3+pcWtGbP6l8RNM2b1r8Eo2Vj9azBKNlb/EjbNmNW/hE0zZvWvwSjZWP1rMEo2Vv8SNs2Y1X/p+V77CnEFYaB0AVv9axa5ZGP1L4mbZszqX8KmGbP612CUbKz+NRglG6t/CZtmzOpfwqYZs/rXYJRsrP41GCUbq//S84O0GcL0ykDpArb6lxa3ZszqXxI3zZjVvwajZGP1r8Eo2Vj9S9g0Y1b/EjbNmNW/BqNkY/WvwSjZWP1L2DRjVv+l53vtK8QVhIHSBWz1r1nkko3VvyRumjGrfwmbZszqX4NRsrH612CUbKz+JWyaMat/CZtmzOpfg1GysfrXYJRsrP5Lzw/SZgjTKwOlC9jqX1rcmjGrf0ncNGNW/xqMko3VvwajZGP1L2HTjFn9S9g0Y1b/GoySjdW/BqNkY/UvYdOMWf2Xnu+1rxBXEAZKF7DVv2aRSzZW/5K4acas/iVsmjGrfw1GycbqX4NRsrH6l7Bpxqz+JWyaMat/DUbJxupfg1GysfovPT9ImyFMrwyULmCrf2lxa8as/iVx04xZ/WswSjZW/xqMko3Vv4RNM2b1L2HTjFn9azBKNlb/GoySjdW/hE0zZvVfer7XvkJcQRgoXcBW/5pFLtlY/Uviphmz+pewacas/jUYJRurfw1GycbqX8KmGbP6l7Bpxqz+NRglG6t/DUbJxuq/9PwgbYYwvTJQuoCt/qXFrRmz+pfETTNm9a/BKNlY/WswSjZW/xI2zZjVv4RNM2b1r8Eo2Vj9azBKNlb/EjbNmNV/6fle+wpxBWGgdAFb/WsWuWRj9S+Jm2bM6l/Cphmz+tdglGys/jUYJRurfwmbZszqX8KmGbP612CUbKz+NRglG6v/0vODtBnC9MpA6QK2+pcWt2bM6l8SN82Y1b8Go2Rj9a/BKNlY/UvYNGNW/xI2zZjVvwajZGP1r8Eo2Vj9S9g0Y1b/ped77SvEFYSB0gVs9a9Z5JKN1b8kbpoxq38Jm2bM6l+DUbKx+tdglGys/iVsmjGrfwmbZszqX4NRsrH612CUbKz+S88P0mYI0ysDpQvY6l9a3Joxq39J3DRjVv8ajJKN1b8Go2Rj9S9h04xZ/UvYNGNW/xqMko3VvwajZGP1L2HTjFn9l57vta8QVxAGShew1b9mkUs2Vv+SuGnGrP4lbJoxq38NRsnG6l+DUbKx+pewacas/iVsmjGrfw1GycbqX4NRsrH6Lz0/SJshTK8MlC5Yh4UHAAAgAElEQVRgq/9Dt55M0gKXxvJcq39J3DRjVv8SPs2Y1b8Go2Rj9a/BKNlY/UvYNGNW/xI2zZjVvwajZGP1X3r9W+O3zvfaV4grCAPWAiw9/5Y7tnpvAI7cwQbAmj9J3DVjVv+aJifZWP1rMEo2Vv8SNs2Y1b+ETTNm9V96/Vvjt84P0mYI0ysD1gIsPf/uz/XfANzze1scAdhcmDjQiLxkY60fTZOTbKz+JWyaMat/CZtmzOpfg1Gysfovvf6t8Vvne+0rxBWEAWsBlp7/xFOL3kcAvvoUGwBr/iRx14xZ/WuanGRj9a/BKNlY/UvYNGNW/xI2zZjVf+n1b43fOj9ImyFMrwxYC9DD/Lt6HAW4615788/YNSIn2Vj504i8ZGP1L2HTjFn9S9g0Y1b/GoySjdW/BqNkY/UvYdOMWf3n+SXX/xDxW97Da18hriAMWIrPy9xnji3S7Z/SXwx4+2+dTEeP2w59N9g1IifZNO/T91ESd81YX7/NPAmbZqx5n76PGoySTV+/zTwNRsmmeZ++jxI2zVhfv808CZtmrHkfy2PJ9W+Je4i5QdoMYXplYIgi9PAeWQQ0/wnk//yHav4Zt0bkJBsrdxqRl2ys/iVsmjGrfwmbZszqX4NRsrH612CUbKz+JWyaMav/Zn6p9d/4L/Xota8QVxAGShXuWH6/+tQi3XPvVspX+B86cvo3P88X/A1xzr8dt0bkJJv2+3V9LYm7Zqyrv7a9hE0z1n6/rq81GCWbrv7a9hqMkk37/bq+lrBpxrr6a9tL2DRj7fezvp56/Vvjtc4P0mYI0ysD1gKsfb5G5CQbK38akZdsrP4lbJoxq38Jm2bM6l+DUbKx+tdglGys/iVsmjGr/9rne+0rxBWEgdoXkBW/RuQkG6t/Sdw1Y1b/EjbNmNW/BqNkY/WvwSjZWP1L2DRjVv8SNs2Y1X/t84O0GcL0ykDtC8iKXyNyko3Vv0bkJRurfwmbZszqX8KmGbP612CUbKz+NRglG6t/CZtmzOq/9vle+wpxBWGg9gVkxa8ROcnG6l8Sd82Y1b+ETTNm9a/BKNlY/WswSjZW/xI2zZjVv4RNM2b1X/v8IG2GML0yUPsCsuLXiJxkY/WvEXnJxupfwqYZs/qXsGnGrP41GCUbq38NRsnG6l/Cphmz+q99vte+QlxBGKh9AVnxa0ROsrH6l8RdM2b1L2HTjFn9azBKNlb/GoySjdW/hE0zZvUvYdOMWf3XPj9ImyFMrwzUvoCs+DUiJ9lY/WtEXrKx+pewacas/iVsmjGrfw1GycbqX4NRsrH6l7Bpxqz+a5/vta8QVxAGal9AVvwakZNsrP4lcdeMWf1L2DRjVv8ajJKN1b8Go2Rj9S9h04xZ/UvYNGNW/7XPD9JmCNMrA7UvICt+jchJNlb/GpGXbKz+JWyaMav/0t8Hr8Eo2VjxS7nVjFn9S9g0Y1b/tc/32leIKwgDtS8gK36NyEk2Vv8akZdsrP4lbJoxq//S3wevwSjZWPFLudWMWf1L2DRjVv+1zw/SZgjTKwO1LyArfo3ISTZW/xqRl2ys/iVsmjGr/9LfB6/BKNlY8Uu51YxZ/UvYNGNW/7XP99pXiCsIA7UvICt+jchJNlb/GpGXbKz+JWyaMav/0t8Hr8Eo2VjxS7nVjFn9S9g0Y1b/tc8P0mYI0ysDtS8gK36NyEk2Vv8akZdsrP4lbJoxq/88X/MtkG0O8rdCDuFbg1GyscbQxtX1tdW/hE0zZvVf+3yvfYW4gjBQ+wKy4teInGRj9d9V8Nv2Vv8SNs2Y1X+eX/L74DUYJRsr/nY+u762+pewacas/mufH6TNEKZXBmpfQFb8GpGTbKz+uwp+297qX8KmGbP6b+aX+j54DUbJpom/72M7n11f9/XbzJOwacaa9+Fx0euIlNe+QlxBGGDh9Vt4DW8akZNsmvfp+9hV8Nv2ff028yRsmrHmfYZ6nPr74DUYJRsr7nY+u762+pewacas/mufH6TNEKZXBmpfQFb8GpGTbKz+uwp+297qX8KmGbP6Lz1fg1GyscbfzmfX11b/EjbNmNV/7fO99hXiCsJA7QvIil8jcpKN1X9XwW/bW/1L2DRjVv+l52swSjbW+Nv57Pra6l/Cphmz+q99fpA2Q5heGah9AVnxa0ROsrH67yr4bXurfwmbZszqv/R8DUbJxhp/O59dX1v9S9g0Y1b/tc/32leIKwgDtS8gK36NyEk2Vv9dBb9tb/UvYdOMWf2Xnq/BKNlY42/ns+trq38Jm2bM6r/2+UHaDGF6ZaD2BWTFrxE5ycbqv6vgt+2t/iVsmjGr/9LzNRglG2v87Xx2fW31L2HTjFn91z7fa18hriAM1L6ArPg1IifZWP13Ffy2vdW/hE0zZvVfer4Go2Rjjb+dz66vrf4lbJoxq//a5wdpM4TplYHaF5AVv0bkJBur/66C37a3+pewacas/kvP12CUbKzxt/PZ9bXVv4RNM2b1X/t8r32FuIIwUPsCsuLXiJxkY/XfVfDb9lb/EjbNmNV/6fkajJKNNf52Pru+tvqXsGnGrP5rnx+kzRCmVwZqX0BW/Gedk5JG6HazyXOt/rsKftve6r80fmv81vml8bfz2fV1dPzW+KPP99pXiCsIA9EXQOn4913YfwNwwUU74TcApfGT/5Opa9NftrfyV3v+rfxZ5wdpM4TplQFrAdY+/9pDO72PABw6HH8DUBp/6forjX+5mfd5buWvNH5r/NHne+0rxBWEgegLoHT8Dz2ynd745u5HAfKch79s+x6CjL2P6C/PsfJXGr81fuv80viXc9nneXT81vijzw/SZgjTKwPRF4CH+K+5tvtRgIOH7P/9Z+x9RH95zhD8lcQ/RPzW9yiJfzmXfZ5bsef5JfEPEX/k9/DaV4grCAORi99L7E9vLNKll+k3AZe+b+fUd9gPEX8f0V+eM0QMJfEPEb/1PUriX85ln+dW7Hl+SfxDxB/5PYK0GcL0ykDk4vcUexbBg9ftiKcD8mH//J9//u76oWLvI/rLc4aKoxT+oeK3vk8p/Mu57PPciruZXwp/47/WR699hbiCMFDrwhkL98Nf3k7XXb+T8hX+bz07nfrNz/MFf0Oc82/H3Uf0l+e038/6emr81niHnj81/uVc9nkeHf/Q8Ud7vyBthjC9MhCt4Il39ehBH9FfngOfq3xG42M5l32eR8NLvKv16rWvEFcQBlhQqwsqGh99RH95TjS8xLtar8u57PMcPlf5jMZHkDZDmF4ZiFbwxLsqWH1Ef3kOfK7yGY2P5Vz2eR4NL/Gu1qvXvkJcQRhgQa0uqGh89BH95TnR8BLvar0u57LPc/hc5TMaH0HaDGF6ZSBawRPvqmD1Ef3lOfC5ymc0PpZz2ed5NLzEu1qvXvsKcQVhgAW1uqCi8dFH9JfnRMNLvKv1upzLPs/hc5XPaHwEaTOE6ZWBaAVPvKuC1Uf0l+fA5yqf0fhYzmWf59HwEu9qvXrtK8QVhAEW1OqCisZHH9FfnhMNL/Gu1utyLvs8h89VPqPxEaTNEKZXBqIVPPGuClYf0V+eA5+rfEbjYzmXfZ5Hw0u8q/Xqta8QVxAGWFCrCyoaH31Ef3lONLzEu1qvy7ns8xw+V/mMxkeQNkOYXhmIVvDEuypYfUR/eQ58rvIZjY/lXPZ5Hg0v8a7Wq9e+QlxBGGBBrS6oaHz0Ef3lOdHwEu9qvS7nss9z+FzlMxofQdoMYXplIFrBE++qYPUR/eU58LnKZzQ+lnPZ53k0vMS7Wq9e+wpxBWGABbW6oKLx0Uf0l+dEw0u8q/W6nMs+z+Fzlc9ofARpM4TplYFoBU+8q4LVR/SX58DnKp/R+FjOZZ/n0fAS72q9eu0rxBWEARbU6oKKxkcf0V+eEw0v8a7W63Iu+zyHz1U+o/ERpM0QplcGohU88a4KVh/RX54Dn6t8RuNjOZd9nkfDS7yr9eq1rxBXEAZYUKsLKhoffUR/eU40vMS7Wq/LuezzHD5X+YzGR5A2Q5heGYhW8MS7Klh9RH95Dnyu8hmNj+Vc9nkeDS/xrtar175CXEEYYEGtLqhofPQR/eU50fAS72q9Lueyz3P4XOUzGh9B2gxhemUgWsET76pg9RH95TnwucpnND6Wc9nneTS8xLtar177CnEFYYAFtbqgovHRR/SX50TDS7yr9bqcyz7P4XOVz2h8BGkzhOmVgWgFT7yrgtVH9JfnwOcqn9H4WM5ln+fR8BLvar167SvEFYQBFtTqgorGRx/RX54TDS/xrtbrci77PIfPVT6j8RGkzRCmVwaiFTzxrgrWoVtPpj7Cn+fkufC5ymc0Psh/7PxZ681rXyGuIAxYC5D5ZQXolju2em8AjtzBBiB6/ZL/suuvdP0EaTOE6ZWB0gWMf5uA3f25/huAe35viyMAmzb+S9cv+Y+dP2v9eO0rxBWEAWsBMr+sAD3x1KL3EYCvPsUGIHr9kv+y6690/QRpM4TplYHSBYx/u4Dd1eMowF330vznUnvk376GotaC175CXEEYiFr4xH1G9J45tki3f0p/MeDtv3UyHT1+Zj5cxuaC/MfOn2X9BWkzhOmVAUvxMdeP8OQmoPlPMP/nT/P3k7eh1hD5n19ONbXhta8QVxAGNEWGTRxx+epTi3TPvVspX+F/6Mjp3/w8X/DHOf84eey75sj//HO8XBtB2gxhemVguZh4Xpd4kG/yTQ3ErgGvfYW4gjCAAMQWAPJH/qiBemsgSJshTK8MIB71ige5J/fUQOwa8NpXiCsIAwhAbAEgf+SPGqi3BoK0GcL0ygDiUa94kHtyTw3ErgGvfYW4gjCAAMQWAPJH/qiBemsgSJshTK8MIB71ige5J/fUQOwa8NpXiCsIAwhAbAEgf+SPGqi3BoK0GcL0ygDiUa94kHtyTw3ErgGvfYW4gjCAAMQWAPJH/qiBemsgSJshTK8MIB71ige5J/fUQOwa8NpXiCsIAwhAbAEgf+SPGqi3BoK0GcL0ygDiUa94kHtyTw3ErgGvfYW4gjCAAMQWAPJH/qiBemsgSJshTK8MIB71ige5J/fUQOwa8NpXiCsIAwhAbAEgf+SPGqi3BoK0GcL0ygDiUa94kHtyTw3ErgGvfYW4gjCAAMQWAPJH/qiBemsgSJshTK8MIB71ige5J/fUQOwa8NpXiCsIAwhAbAEgf+SPGqi3BoK0GcL0ygDiUa94kHtyTw3ErgGvfYW4gjCAAMQWAPJH/qiBemsgSJshTK8MIB71ige5J/fUQOwa8NpXiCsIAwhAbAEgf+SPGqi3BoK0GcL0ygDiUa94kHtyTw3ErgGvfYW4gjCAAMQWAPJH/qiBemsgSJshTK8MIB71ige5J/fUQOwa8NpXiCsIAwhAbAEgf+SPGqi3BoK0GcL0ygDiUa94kHtyTw3ErgGvfYW4gjCAAMQWAPJH/qiBemsgSJshTK8MIB71ige5J/fUQOwa8NpXiCsIAwhAbAEgf+SPGqi3BoK0GcL0ygDiUa94kHtyTw3ErgGvfYW4gjCAAMQWAPJH/qiBemsgSJshTK8MIB71ige5J/fUQOwa8NpXiCsIAwhAbAEgf+SPGqi3BoK0GcL0ygDiUa94kHtyTw3ErgGvfYW4gjCAAMQWAPJH/qiBemsgSJshTK8MIB71ige5J/fUQOwa8NpXiCsIAwhAbAEgf+SPGqi3BoK0GcL0ygDiUa94kHtyTw3ErgGvfYW4gjCAAMQWAPJH/qiBemsgSJshTK8MIB71ige5J/fUQOwa8NpXiCsIAwhAbAEgf+SPGqi3BoK0GcL0ygDiUa94kHtyTw3ErgGvfYW4gjCAAMQWAPJH/qiBemsgSJshTK8MIB71ige5J/fUQOwa8NpXiCsIAwhAbAEgf+SPGqi3BoK0GcL0ygDiUa94kHtyTw3ErgGvfYW4gjCAAMQWAPJH/qiBemsgSJshTK8MIB71ige5J/fUQOwa8NpXiCsIAwhAbAEgf+SPGqi3BoK0GcL0ygDiUa94kHtyTw3ErgGvfYW4gjCAAMQWAPJH/qiBemsgSJshTK8MIB71ige5J/fUQOwa8NpXiCsIAwhAbAEgf+SPGqi3BoK0GcL0ysDPvyklfuGAGqAGqIF4NeC1rxBXEAZY9PEWPTkjZ9QANZBrIEibIUyvDCAkCAk1QA1QAzFrwGtfIa4gDLDwYy588kbeqAFqIEibIUyvDCAiiAg1QA1QAzFrwGtfIa4gDLDwYy588kbeqAFqIEibIUyvDCAiiAg1QA1QAzFrwGtfIa4gDLDwYy588kbeqAFqIEibIUyvDCAiiAg1QA1QAzFrwGtfIa4gDLDwYy588kbeqAFqIEibIUyvDCAiiAg1QA1QAzFrwGtfIa4gDLDwYy588kbeqAFqIEibIUyvDCAiiAg1QA1QAzFrwGtfIa4gDLDwYy588kbeqAFqIEibIUyvDCAiiAg1QA1QAzFrwGtfIa4gDLDwYy588kbeqAFqIEibIUyvDCAiiAg1QA1QAzFrwGtfIa4gDLDwYy588kbeqAFqIEibIUyvDCAiiAg1QA1QAzFrwGtfIa4gDLDwYy588kbeqAFqIEibIUyvDCAiiAg1QA1QAzFrwGtfIa4gDLDwYy588kbeqAFqIEibIUyvDCAiiAg1QA1QAzFrwGtfIa4gDLDwx134bz173Pcnf/C7rgbechbcrONmLn8P0mYI0ysDc1kIXnB88IqUvvJESn/xF+mHP3/+5yk9/nhKecxLnOviuPjSlO7/YkrPv5DSyZMp/fX3Tz+///6U3v0e//Gvw9X8/ZL3pvTAAyn96Z+m9PrrKb32Wkrf+lZKX3wgpYsviY/vig+l9OVHU8o1t7NzugTz8/y3y943Pr53X3yay8zpK6+crqFcS/fdNw9+mzry8ui1rxBXEAa8FHL0OM4973Tj/2HXX/PkscdTOvuc8YW4K5/5v8XcBJumsVv4eSxvDiIe1cj4Hnxob3wPPJhSxP+czz43pSee2C1rq3/LG4GzRqi/zFneWO1VP7nGIvLbdT1NZR+kzRCmVwamKtQ5+8ni+0d/tCq00qs//KavTUBu6Mc3pYhXx44diyXiueE8+9wqBunViROx8OX6++P/KSFaHXvuD4fFl/k98eyqD+lVrjU2AcP8E+C1rxBXEAbm3JinwvboY5Lc7T728JeGEYAhMOb/yrr+5CMBQ/ie4j3yf/5df/KRgCliG8JHn/p76OHh8GWuuv7kU0pDYK/9PYK0GcL0ykDtC8iK//2Xy4c9JWHM59ut/q3z83l96bDtuvjznAjnzHOMc8b33vety5D891P5G6D+8jUVffn91RlcU2Jdf9b5XvsKcQVhwFqAtc/P/0n1/cn/eZfmL/8n3/fnCwH+i/vSI33RpZTnls7PXv4t+O77gh1ffo++PxHqZy/+S48HaTOE6ZWB0gUc3f+f/u++8pfSCy/YBdjKX46h78/zz5ePX8Kfr234/vf7okvp5VfGuWBOirnr2Le/3R/f//kze/7ye/T9efFFu/+ufM3N3mtfIa4gDMxtQUyNZ2urr/yltFik9Oa3lBPB7DvH0Pcnf4Ruar67+Lvp5r7Izsy78SbfGPNHNS0/+y7sj++dF1g8p/Tyy/19d6mDOdsGaTOE6ZWBOS+OKbC9+ppNBC0CbMV3wUW22F991beAHz9uw5dn5088WHkec751A3DLkf748lzLj/f6GTNvQ723175CXEEYGKoQa32fPzMcAs3i+eGP9BdgK+cf+a8W+U4pY7fGMNb8d+xLaXvbhi/Pzhe45f90x4rT+r75MLrlJ98XoG8Mea7lJ98gqK9v5p3mLkibIUyvDLCQbCLU5fPPu4ml5T8wa+6O3LpbRPq/ZezWGMaaf/c9ehx7Wd51t1+c1iZsuQ7Auvm1bD7Gqpto7+u1rxBXEAaiFby3eK0C/LufLtdcsm/Lj2cBt1yc2eYkX2j3xjeXy5NU89ZNXMba5zSU9fx/9lty8ytxGmksSJshTK8MRCp2j7FGbqKRNy9SLeT74Q/988EP+dwAlGrEpTYeUt5rHPPaV4grCAM1LpohMVuFMN92dsh4uryX9fRFxt7F31S2ls/Gr9s4eLpzY5vHEofirZtHy6mHNv6aXwdpM4TplYGaF88Q2K0X0pUUQmvjyNiH4HDI97B+9n/dBsDzPQFKNGNr7Xg+fTRkPY79Xl77CnEFYWDsAp37+1s/SlfqXgDWewDkRpmxe8vvEJ/9X7cJ8HpPAOtRqIy3y3UApU47eKs1D/EEaTOE6ZUBD0UcOYapG+mlS99nn2/Ek3/zd9vn2wrn+7JruYy6cdkL3xCf/V+3AfB6T4CpG/LUG469cl7zuNe+QlxBGKh58QyF3Xo4VHMvgPz1qfl7B6QvXslj2u+zzz4tP9/5jn6zMRTPe73PUJ/9X8eL53sCWGuwyyH5Eqcc9sp9reNB2gxhemWg1oUzJG7rxXR7fRwqN//nBv4+e+td3J59zt8GYMjP/q/bBHi9J8CUTXnKzcaQ63SO7+W1rxBXEAbmuCimxmQV373uBdDnGwcf2OObBq0fX8zfQT81z3v5G/Kz/+s2AF7vCTDVYfmpTzfslfPax4O0GcL0ykDtC2gI/NZmKh1+vfhS+bD/ukaVD1dffMn6Jj32pmUIXru8xxif/V/Hrcd7AkzVmKfaaHTJfc22XvsKcQVhoObFMxR26+F06Za6Dz60rg3t/fd8PcA6jNbTFrkRrHvvEn8f47P/6xj2ek+AKQ7NWzeOJT/2WqIux/YZpM0QplcGxi7QGt5/rHsB5E8YfPe769rQ3n9/6Xvrv27Y2iw83QNgrM/+r2PY6z0BpmjO1rqRjnbVoBVDY/TaV4grCANDF2SN7zfWR+r2/9q6FqT/+0ev/P//U5/6o4tj18SYn/1fx7THewKMfXh+qtMMY9fLnN4/SJshTK8MzGkxlMIyREPd7UYs+VCz9SdfQNjmZawNS9vPVK/H/Oz/Ov493hNg7AY99gZjqnqZkx+vfYW4gjAwp8VQEov10Gj7XgDWw/9N49rtNID1lEXGWpLrZd9jf/a/4bH96PWeANY6lA7RT3GKYTm3PN97nQVpM4TplQEW2d6LTMOR9aK69r0Ahjj83zSt9mkA639y0kWLGq6GtJnis/8Nj+1Hj/cEGLNJj7m5GLImanovr32FuIIwUNNiGROrVXjb9wIY4vB/07DapwHG/NjimBzv9t5TfPa/4bH96PGeANbNXca42+mosU8v7JZb/rb3PydB2gxhemWARbb3ItNwNGRTHerwf9Ow2qcBht6saPgZw2bKz/43XLYfvd0TYKxGPdbGYoy6qOk9vfYV4grCQE2LZUysVoE8ceLMRmTIw/9Nw1o+DWA9XZGxjsml9r2n/Ox/w2P70eM9AcY4VG/dNPL5/3HWTJA2Q5heGdCKLXbyArZeWLcskEMe/m8a1vJpAGuD8HAPgLPOSSl/Ht/yky/ky7+WH4/3BBijWVtrJseEhgzPgde+QlxBGGBRDrMoh/poXT78/9JLlpa0+9zmNMAQH1nMWEvXzRCf/c8f5RviI4Te7glgPRqVK2j5OoCxTiuUrqE5+A/SZgjTKwNzWAQeMAzRWLPojnH4v9kS5NMAQ21USnM+VOMeaiNRmo9l/0M37KE3FMux8ty2mfbaV4grCAMsQNsCXObPepg03wtgjMP/zQYgnwawnqrIGJcxl3g+xGf/m0P3Q9xG2OM9Aay1uHzIfoxTCiXqZo4+g7QZwvTKwBwXRSlM1ovrbr1tnMP/zQYgnwa47WPNq36PHu4BMMRn/5cv3hviYkJv9wQYsmkPuZkotTbn6tdrXyGuIAzMdWGUwGUV3W9+s19T7jLL6uPRx8ofARjis//LH98b4uOE3u4JMNRh+6FPJ5RYl3P2GaTNEKZXBua8OKbGZr0XQJdGXsq2fcOiqTkeq1kPvamYmpe2v6Ea91AbiXZ8vB5mI+21rxBXEAZYiMMsxMzjEGJZqrFr/WaMJWtmrMP1Q59WKMlR43uIQ/fWo1rLH29t4uJxuDUUpM0QplcGWIzDLUbrBXbaJlzSruQ9AMa8YG/ICwu9rKkhmndu4JafHIMXPuYYh9e+QlxBGJjjoiiFyfoRO4vQTjW35D0Axv7I3lAfLSxVf22/Ho5Itb/kqh0jr20bpCBthjC9MsACtC3AZf6GuBfAVI28j5/FIqWMcRnzlM/HbtBjbzCm5Cr7GuI6gD51sjxn+YZCU+OvwZ/XvkJcQRioYZFMidF63nVZPL09z9im5HLZ1xSH6Mc8xbCMZcrnJeuR8//jr5cgbYYwvTIwpRjV4Mt6LwBvTX85npL3AJjqIr2xLjIsVfvW6wCW89/1Oef/2QB47XvE9QMGSgnTXP2WFNyuAt3VvqSgT/UxvbE+Zliq3kteB8D5fzYANFrnDJQSprn6nfO9AErdA2DqpjzVZmOKNVDyOgDO/7MBcN7+CG8KEarJR8n/uLr+R9/VvtQ9AKY+LD/V6Yap1kWJ6wA4/z9+88/1QweDARMDU4lQLX7mfC+AEvcAKHFh3hQXHE65Hkqclip5umhKbkv7Mok/k2GgdAHPzf+c7wVQ4h4ApT6aN/ZHDqes+xJHpTj/zxEAumsABqYUohp8zfVeAKXuATBEI+56qmMo+2PHpmkCe62rEtcBcP5/mtwHaDGE6JmBvcSD8e4Leapzri+9NO7XBy83wu98pzsP1toZ4lD8Moapn+/snL4Zj5WHIeZPVZOZY87/T7dWPPcWYgvAwBDiwnusLvip7gXw0MMp5d8pfkrcA2CIi/Gm4Ebycdfdq7VRaq1MeR0A5/+ny3mAFkOInhkoJUhz9juV2H50f0ofvVJqP8ONlRD1IT6ONxwD/d7p299O6Y1vnq4hrFtXU14HwPn/6fLtubcQWwAG1gkGf++/iKe4F8BL3zt9X/43/UJK3/1uv+bUZdbU9wAY4rP/XfCNafvBD/WvpQAbAH0AAAwuSURBVKHW4ZTXAXD+f7p8B2gxhOiZgaEEhvc5s+in+G8rH/pvOJ/iNMDU9wAY4rP/Yzb1Lu/98JfO5KrJWYnHKa4D4Pz/tLn23FuILQADJYRo7j6nuBdAPvzf8DjFaYAp7wEwxGf/uzTosW1ffiWls845k68mb1M/TnFqqsSpoql59OQvQIshRM8MeCrmucQy9r0AmsP/DV9TnAaY8h4AQ3z2f+ym3vX9b7yp/AZgiiNTnP+fNs+eewuxBWCg5Pe7Nw1sbo9j3wtg+fB/w92YpwGmvgdA5M/+r9sYeLgnwBTXAXD+f7oNwC+8lVsBB2ixvkM8+9y00zQRHodbvGOeb10+/N/kbMzTABlL42fsx+if/V+3AfByT4Ax65Lz/9Otk7wOzz0vbfvuLkTnnoFfPD9tjS3qNb7/WPcCaB/+b7gd8zTAlPcAmMNn/9dtAjzcE2DM6wA4/z/tBuA//9LOlvsGQ4C+GXj7vp3XmibC43ALeCyh3e3wf5O3sU4DTCnsc/js/7oNgId7Aox5HQDn/4fTj2ZNS4/v2Lfzqu/uQnTuGbjwovQ9qcgY67eox7oXwG6H/5scjXUaYKp7AMzps//rNgGl7wkw5nUAnP/vpxXN+u36eNGvpJfcNxgC9M3Axe9N3+paeNjvvdDH+E9r3eH/Jh9jnQaY6h4Ac/rs/7oNgId7AoxxHQDn//fWhGadDvV48WXpBd/dhejcM3DFR3aeHKogeZ8zIjDGvQCkw/8N92OcBpjiHgBz++z/ug2Ah3sCjHF6asrTRE2t1/74oQ/vfMV9gyFA3wxcdWD712tfSGPgH+NeANLh/wbDGKcBprgHwBw/+79uE1D6ngBjHJ3i/P+ZzX+zFsd+vOpAutV3dyE69wxcd/3i/LELtcb3H/peAHsd/m84Hvo0wFT3ABjis/9TNNbsw/pT+p4AY1wHwPn/6TcA196wOM99gyFA3wxc/fH0Dz18W1nTwOb0OOS5Vs3h/4a7IU8DTHEPgCE++z/VofUhTlV4uCfAkLXJ+f/pm3/W7BtvTD/pu7sQXQgG8sdJmubB43CLech7AWgO/ze5G/I0wBT3ABjis/9TXlw3xMWKpe8JMOR1AJz/H04zmjW81+M7L9x5JURzIUj/DFz+oZ2jexUc490X+VAiqz383+RoyNMAU4j7EJ/9n/LjdUN8XLH0PQGGvA6A8//dtaFZq30fP3DFztf9dxYiDMHAgQPbV/ctROatX/xD3Qugy+H/Jh9DnQYY+x4AUZtptE1LUxfN45DXAXD+f70GNHwP/Xjw4PZHQzQXgvTPwA03pJ/iOoDhF/FQ/2V1OfzfCM1QpwHGvgfA/fdbL6lLqcTh9OzT+pOxN/kq8TjEdQCc/58+h/kIX752y39nIcIwDFz0rp3vlhChOfsc4l4AXQ//N3wOdRpg7HsAvPgtWxstdUFd/g86+7b8vPDC9M2jqY/8OMQpqilOES3HzPOUfvlX01+FaSwEGoOB/b+WfpvFNawgD3EvgD6H/5s8DnEaYOx7ALz6qqWFplTyI3XWjy7mTy40uSrxOMQRKs7/T5/DK69On4jRVYgyDAP5NED+fukSQjRXn0PcC6DP4f+GT+tpgCnuAfDaa7YNwBSf/W/4bD9a7wnw6mtl19sQ1wFw/n/aHGZNOXw4/XSYxkKgcRi45L07L7ZFjte2Bf7ii/0bXN/D/03OrKcBpjhEbTkFMNVn/xs+249nnZNSjqHvz/OFTwFkPPkcft8fzv/btKFdT5rXl1y2w/3/47TUWJHmK0s1RYiNfuF/8YG+8prSAw/q/azLyYMP9fc/xUVq993XP74pP/u/jt8cQ9+fP/i8Pb/r4tL+3XIR5n1fKB+/Fudc7A5ct/2RWF2FaMMwsH9/+pF37EvcFOhNwwnbxZf0u1gsX2D27vfY47j40v7+33OJ3f9ewpt9bG93b6F5zrvePX58e8X/q+/px2+Ofwp+94rfe33sFX9N429/Z3rtscfSj4ZpKAQaj4GrDmx/rKZFNQXWB3ocBRjyv+8+RwHykYspuMk+7v9i9w3AFwp/hG6Zmz5HeYbM73IsfZ7nI01df6asjz6Y5jjnygPbt8TrKEQcioH9+9OPnf/2nZNzXEClML3lrJQ2N/USm69sz3OGije/14kTev851iH974UjX3x6vAM/+ep7Txesds2vx/i71EeOf8r62Kt+ahg//5d2TmZtDtVMCDYmA/uv2v7NGhbVlBizYOb/dKXD3fmwf7YZQ1zze+YjEdJn1/NY/s9uDP97cd3wI8WXucv/OXtq/g2uHFPmTspvHstHLjzGr62Pseqz4ZHH3Tf+V161fWfMbkLU4RjIO819F6RXWIy7L0YLL/m8b24C+Qrwl19OaWsrpXy1fb6g6t0XD++vHWu+JiGLeL76Pn8Er/GfG2sea9tP/TqfU8/85PgyP6+/ntLzz6eUL5jzcM58Lz4yh5+/73R+c+wZQ/4kSMbk4ZqFveLPHOdaaOoj10iOP/9tivrcK74ax/ddmF7mv/9wbTR2wNddvzif2wOXb4g1Ch6YqTtq4HQNZA2+9vrFO2N3E6IPycBll6c/YiEixtQANUANlKmB912+882QzYOg4zNww63pH5997s4Oi7/M4od3eKcG6q2Bc89L24duTv8oficBQVgGDhzc3s+pgHpFiAZE7qmB6Wsga+5VB7evCds4CHw+DFx+xc4ziMD0IgDncE4N1FkDH7hi5+vz6SAgCc3A7benv3PhRel7iFGdYkTeyTs1MF0NXHDRzvdvuy39eOimQfDzYuDw4fSvzn1b2kYIphMCuIZraqCuGjj3F9P2DbekfzGv7gGaWTBw3eH0treenbgocMDvCkDg6xJ48k2+19VA1tbrr1+cM4tmAYh5MnDw4PZ7Pd7JbN2i4u8ILjVADXivgTe/JaUD121/cJ5dA1SzYiB/KQWfDEBUvYsq8VGjEWoga+mBA+mmWTUJwMybgasObh/Ku9YIC4wYyRM1QA14rIGsoXzL37x75WzR5dMBZ3FNAJsgromgBqiBzjXwlrPSzrXXpitm2yAANn8Grr1hcV6+ctXj7pqY+K+PGqAGPNbAeb+YtrN2zr9DgHD2DFx/ffrnF/7yDvcJ4L+gzv8FeRRnYmLTMGYN7Lsoff/wTelfz74xALAeBvbvT3/7wx/ZeZyLAxHPMcWT96a+otZA1sbLP7BzjJv81NMXq0N64MD21XyBECIdVaSJm9odowbyF/tcfc32VdU1BADXx8D1R9LP5J0uRwMQ0zHElPekrqLUQNbAS9+/8ydHjqR/Ul8nAHHVDOSLXPL5riiLlThpLNQANTBUDey7IL1yzfXbF1TdBABfNwP796cfu/Lq9Inz375zcqiFxfsg0tQANeC1Bs5/R3r9yqu278zaV7f6gx4GfsDAY4+lH83nwPZdmF72unCJi6ZCDVADfWvgHfvSq792IN2eL4hG+GEABnZhYP/+9CMHrtv+yMWXpRf4TgHEtq/YMo/a8VADWcMuuWznhaxpWdt2kTz+BAMwsBsDN9yQfmr/Vdu/+Svv2vm/b/oFBM2DoBEDdUgNyDWQtSprVj61mTVsN23jbzAAAx0YuP7j6R9cc+32+z/wofTUvgt3XuYTBLIIIdLwQw1MVwP/5ZfSyfdfvvOHVx3c/m+HD6ef7iBtmMIADHRl4MYb009edzi97aoD6dYrPrzzxCXv3Xkx323wHft2Xs2L8exz0w5fRjSdANJs4HqONZA1JGtJ1pSsLVlj8unJrDlZe/InmbIWddUv7GEABmAABmAABmAABmAABmAABmAABmAABmAABmAABmAABmAABmAABmAABmAABmAABmAABmAABmAABmAABmAABmAABmAABmAABmAABmAABmAABmAABmAABmAABmAABmAABmAABmAABmAABmAABmAABmAABmAABmAABmAABmAABmAABmAABmAABmAABmAABmAABmAABmAABmAABmAABmAABmAABmAABmAABmAABmAABmAABmAABmAABmAABmAABmAABmAABmAABmAABmAABmAABmAABmAABmAABmAABmAABmAABmAABmAABmAABmAABmAABmAABmAABmAABmAABmAABmAABmAABmAABmAABmAABmAABmAABmAABmAABmAABmBgLwb+H8m0fuZgi5M+AAAAAElFTkSuQmCC;" vertex="1" parent="1">
          <mxGeometry x="130" y="330" width="75" height="75" as="geometry" />
        </mxCell>
      </root>
    </mxGraphModel>
  </diagram>
</mxfile>
